<?xml version="1.0" encoding="utf-8"?>
<!-- Generator: Adobe Illustrator 27.4.0, SVG Export Plug-In . SVG Version: 6.00 Build 0)  -->
<svg version="1.1" id="Layer_1" xmlns="http://www.w3.org/2000/svg" xmlns:xlink="http://www.w3.org/1999/xlink" x="0px" y="0px"
	 viewBox="0 0 910.22 512" style="enable-background:new 0 0 910.22 512;" xml:space="preserve">
<style type="text/css">
	.st0{display:none;}
	.st1{display:inline;}
	.st2{fill:none;}
	.st3{fill:#287EB1;}
	.st4{fill:#EB5F25;}
	.st5{display:none;fill:none;}
	.st6{fill:#E6E7E8;stroke:#231F20;stroke-width:0.2844;stroke-linecap:round;stroke-miterlimit:5.6889;}
	.st7{clip-path:url(#SVGID_00000154427854303293527510000009809999781760859323_);}
	.st8{clip-path:url(#SVGID_00000072277659848112144300000005085961181876328332_);}
	.st9{fill:#E6E7E8;}
</style>
<g id="Layer_2_00000068636397732103539420000017042932920603501965_" class="st0">
	<g class="st1">
		<rect x="34.13" y="34.13" class="st2" width="841.96" height="443.73"/>
		<polygon class="st3" points="34.13,34.13 876.09,34.13 910.22,0 0,0 0,512 34.13,477.87 		"/>
		<polygon class="st4" points="876.09,34.13 876.09,477.87 34.13,477.87 0,512 910.22,512 910.22,0 		"/>
	</g>
</g>
<g id="Layer_1_00000050650277169162063560000012884518825891079318_">
	<g id="Circle">
		<path class="st3" d="M822.95,398.65c-20.63,0-37.35,16.73-37.35,37.35c0,20.63,16.73,37.35,37.35,37.35
			c20.63,0,37.35-16.73,37.35-37.35C860.31,415.37,843.58,398.65,822.95,398.65z M822.95,467.18c-17.22,0-31.19-13.96-31.19-31.19
			s13.96-31.19,31.19-31.19c17.22,0,31.19,13.96,31.19,31.19C854.14,453.22,840.18,467.18,822.95,467.18z"/>
		<polyline class="st5" points="882.56,393.3 823.38,393.3 823.38,438.11 		"/>
	</g>
	<g id="Hat">
		<path class="st3" d="M822.51,394.55l51.43,12.91l-21.56,5.31c0,0-5.71-5.66-11.93-8.64c-6.22-2.98-9.79-4.61-17.95-4.61
			c-8.17,0-10.84,1.63-17.05,4.61c-6.21,2.98-11.92,8.64-11.92,8.64l-7.11-1.23c0,0-7.34,6.15-10.21,10.79
			c-2.87,4.64-6.14,13.24-6.14,13.24l0.28,3.13h-6.71l2.57-3.2c0,0,3.22-9.57,8.35-16.43c5.13-6.86,7.24-7.5,8.6-8.76
			c1.36-1.25-11.18-2.86-11.18-2.86L822.51,394.55z"/>
		<path class="st6" d="M827.92,413.16"/>
	</g>
	<g id="BothKiwiOrange">
		<g id="_x3C_Mirror_Repeat_x3E__00000165928601543541316320000011146967958135579779_">
			<g>
				<g>
					<g>
						<defs>
							<rect id="SVGID_1_" x="773.13" y="436.32" width="43.04" height="28.59"/>
						</defs>
						<clipPath id="SVGID_00000156557263128069078940000014522370236848298926_">
							<use xlink:href="#SVGID_1_"  style="overflow:visible;"/>
						</clipPath>
						
							<g id="_x3C_Mirror_Repeat_x3E__00000001638221155790920630000012501516241095523731_" style="clip-path:url(#SVGID_00000156557263128069078940000014522370236848298926_);">
							<g>
								<path class="st4" d="M808.77,464.9c0,0-11.01-8.23-11.26-9.03c-0.25-0.81,2.62-6.44,2.62-6.44s-3.93-2.24-5.16-2.91
									s-2.62-2.81-2.62-2.81s0.53-1.29-6.62-1.16c-7.15,0.13-12.61,2.61-12.61,2.61s7.82-4.23,13.29-4.01
									c1.63,0.07,5.29,0.18,6.78-0.91c3.15-2.3,6.54-3.93,8.96-3.93c3.45,0,5.6,3.68,5.6,3.68l8.41,9.8c0,0-2.14,1.46-3.84,4.79
									C810.63,457.92,808.77,464.9,808.77,464.9z"/>
							</g>
						</g>
					</g>
				</g>
			</g>
		</g>
		<g id="_x3C_Mirror_Repeat_x3E__00000165947179608952619550000016763585039234230668_">
			<g>
				<g>
					<g>
						<defs>
							<rect id="SVGID_00000029036562282288535400000016059259482797187495_" x="830.57" y="436.32" width="43.04" height="28.59"/>
						</defs>
						<clipPath id="SVGID_00000131345521305513004540000012397725869071008951_">
							<use xlink:href="#SVGID_00000029036562282288535400000016059259482797187495_"  style="overflow:visible;"/>
						</clipPath>
						
							<g id="_x3C_Mirror_Repeat_x3E__00000182502374586252356470000005471355620932504750_" style="clip-path:url(#SVGID_00000131345521305513004540000012397725869071008951_);">
							<g>
								<path class="st4" d="M837.97,464.9c0,0,11.01-8.23,11.26-9.03c0.25-0.81-2.62-6.44-2.62-6.44s3.93-2.24,5.16-2.91
									s2.62-2.81,2.62-2.81s-0.53-1.29,6.62-1.16s12.61,2.61,12.61,2.61s-7.82-4.23-13.29-4.01c-1.63,0.07-5.29,0.18-6.78-0.91
									c-3.15-2.3-6.54-3.93-8.96-3.93c-3.45,0-5.6,3.68-5.6,3.68l-8.41,9.8c0,0,2.14,1.46,3.84,4.79
									C836.11,457.92,837.97,464.9,837.97,464.9z"/>
							</g>
						</g>
					</g>
				</g>
			</g>
		</g>
	</g>
	<g id="KiwiBlueMid">
		<g>
			<path class="st9" d="M827.9,421.53"/>
			<path class="st9" d="M827.64,465"/>
			<path class="st9" d="M824.1,467.68"/>
			<path class="st3" d="M822.81,467.68c3.89-0.18,11.34-0.21,14.62-2.78c0.28-5.97-3.91-14.03-8.28-18.06
				c1.93-3.41,1.49-8.48-3.33-9.6l-2.73-16.15l-2.73,16.15c-4.82,1.11-5.26,6.18-3.33,9.6c-4.37,4.03-8.56,12.09-8.28,18.06
				C812.05,467.47,819.17,467.68,822.81,467.68z"/>
		</g>
	</g>
</g>
</svg>
