<?xml version="1.0" encoding="utf-8"?>
<!-- Generator: Adobe Illustrator 27.3.1, SVG Export Plug-In . SVG Version: 6.00 Build 0)  -->
<svg version="1.1" xmlns="http://www.w3.org/2000/svg" xmlns:xlink="http://www.w3.org/1999/xlink" x="0px" y="0px"
	 viewBox="0 0 193.32 138.52" style="enable-background:new 0 0 193.32 138.52;" xml:space="preserve">
<style type="text/css">
	.st0{fill:#287EB1;}
	.st1{display:none;fill:none;}
	.st2{fill:#E6E7E8;stroke:#231F20;stroke-width:0.5;stroke-linecap:round;stroke-miterlimit:10;}
	.st3{clip-path:url(#SVGID_00000029014732799075653210000016491816878029838228_);}
	.st4{fill:#EB5F25;}
	.st5{clip-path:url(#SVGID_00000013888044443275272060000002026592410623171973_);}
	.st6{fill:#E6E7E8;}
</style>
<g id="Circle">
	<path class="st0" d="M104.27,7.21c-36.26,0-65.66,29.4-65.66,65.66c0,36.26,29.4,65.66,65.66,65.66c36.26,0,65.66-29.4,65.66-65.66
		C169.93,36.6,140.53,7.21,104.27,7.21z M104.27,127.68c-30.27,0-54.82-24.54-54.82-54.82c0-30.28,24.54-54.82,54.82-54.82
		c30.27,0,54.82,24.54,54.82,54.82C159.09,103.14,134.55,127.68,104.27,127.68z"/>
	<polyline class="st1" points="209.05,-2.19 105.01,-2.19 105.01,76.57 	"/>
</g>
<g id="Hat">
	<path class="st0" d="M103.49,0l90.41,22.7l-37.89,9.33c0,0-10.04-9.95-20.97-15.18s-17.2-8.1-31.56-8.1s-19.05,2.86-29.97,8.1
		S52.55,32.03,52.55,32.03l-12.5-2.16c0,0-12.9,10.81-17.94,18.97s-10.8,23.27-10.8,23.27l0.49,5.5l-11.8,0l4.52-5.62
		c0,0,5.66-16.83,14.68-28.88s12.73-13.19,15.11-15.39c2.39-2.2-19.66-5.02-19.66-5.02L103.49,0z"/>
	<path class="st2" d="M112.99,32.71"/>
</g>
<g id="BothKiwiOrange">
	<g id="_x3C_Mirror_Repeat_x3E__00000165928601543541316320000011146967958135579779_">
		<g>
			<defs>
				<rect id="SVGID_1_" x="16.68" y="73.42" width="75.66" height="50.25"/>
			</defs>
			<clipPath id="SVGID_00000093162843790461640680000016253070381547181749_">
				<use xlink:href="#SVGID_1_"  style="overflow:visible;"/>
			</clipPath>
			
				<g id="_x3C_Mirror_Repeat_x3E__00000001638221155790920630000012501516241095523731_" style="clip-path:url(#SVGID_00000093162843790461640680000016253070381547181749_);">
				<g>
					<path class="st4" d="M79.33,123.67c0,0-19.36-14.46-19.8-15.88s4.61-11.32,4.61-11.32s-6.9-3.94-9.07-5.12
						c-2.17-1.18-4.6-4.94-4.6-4.94s0.94-2.27-11.63-2.04s-22.16,4.59-22.16,4.59s13.74-7.43,23.37-7.04
						c2.87,0.12,9.3,0.32,11.92-1.6c5.54-4.05,11.49-6.9,15.75-6.9c6.07,0,9.84,6.47,9.84,6.47l14.78,17.23c0,0-3.76,2.56-6.75,8.42
						C82.61,111.39,79.33,123.67,79.33,123.67z"/>
				</g>
			</g>
		</g>
	</g>
	<g id="_x3C_Mirror_Repeat_x3E__00000165947179608952619550000016763585039234230668_">
		<g>
			<defs>
				<rect id="SVGID_00000075857506276900971210000006103295570360893082_" x="117.66" y="73.42" width="75.66" height="50.25"/>
			</defs>
			<clipPath id="SVGID_00000057862686866261733040000014052815602927537319_">
				<use xlink:href="#SVGID_00000075857506276900971210000006103295570360893082_"  style="overflow:visible;"/>
			</clipPath>
			
				<g id="_x3C_Mirror_Repeat_x3E__00000182502374586252356470000005471355620932504750_" style="clip-path:url(#SVGID_00000057862686866261733040000014052815602927537319_);">
				<g>
					<path class="st4" d="M130.67,123.67c0,0,19.36-14.46,19.8-15.88s-4.61-11.32-4.61-11.32s6.9-3.94,9.07-5.12
						c2.17-1.18,4.6-4.94,4.6-4.94s-0.94-2.27,11.63-2.04s22.16,4.59,22.16,4.59s-13.74-7.43-23.37-7.04
						c-2.87,0.12-9.3,0.32-11.92-1.6c-5.54-4.05-11.49-6.9-15.75-6.9c-6.07,0-9.84,6.47-9.84,6.47l-14.78,17.23
						c0,0,3.76,2.56,6.75,8.42C127.39,111.39,130.67,123.67,130.67,123.67z"/>
				</g>
			</g>
		</g>
	</g>
</g>
<g id="KiwiBlueMid">
	<g>
		<path class="st6" d="M112.97,47.43"/>
		<path class="st6" d="M112.5,123.84"/>
		<path class="st6" d="M106.29,128.56"/>
		<path class="st0" d="M104.02,128.56c6.83-0.32,19.94-0.37,25.7-4.89c0.5-10.49-6.87-24.66-14.55-31.74
			c3.4-6,2.62-14.91-5.85-16.87l-4.8-28.38l-4.8,28.38c-8.47,1.96-9.25,10.87-5.85,16.87c-7.68,7.08-15.05,21.25-14.55,31.74
			C85.1,128.19,97.62,128.56,104.02,128.56z"/>
	</g>
</g>
</svg>
