<?xml version="1.0" encoding="utf-8"?>
<!-- Generator: Adobe Illustrator 27.5.0, SVG Export Plug-In . SVG Version: 6.00 Build 0)  -->
<svg version="1.1" id="Layer_1" xmlns="http://www.w3.org/2000/svg" xmlns:xlink="http://www.w3.org/1999/xlink" x="0px" y="0px"
	 viewBox="0 0 1800 600" style="enable-background:new 0 0 1800 600;" xml:space="preserve">
<style type="text/css">
	.st0{fill:#FFFFFF;}
	.st1{fill:#E5ECF6;}
	.st2{stroke:#FFFFFF;}
	.st3{clip-path:url(#SVGID_00000150080481388799171250000001027681031870994601_);}
	.st4{fill:#00467F;fill-opacity:0.5;stroke:#00467F;stroke-width:2;}
	.st5{fill:#00467F;}
	.st6{fill:#009AC7;fill-opacity:0.5;stroke:#009AC7;stroke-width:2;}
	.st7{fill:#009AC7;}
	.st8{fill:#8D9091;fill-opacity:0.5;stroke:#8D9091;stroke-width:2;}
	.st9{fill:#8D9091;}
	.st10{fill:#A71930;fill-opacity:0.5;stroke:#A71930;stroke-width:2;}
	.st11{fill:#A71930;}
	.st12{fill:#7D0063;fill-opacity:0.5;stroke:#7D0063;stroke-width:2;}
	.st13{fill:#7D0063;}
	.st14{fill:#D2492A;fill-opacity:0.5;stroke:#D2492A;stroke-width:2;}
	.st15{fill:#D2492A;}
	.st16{fill:none;}
	.st17{fill:#2A3F5F;}
	.st18{font-family:'Verdana';}
	.st19{font-size:18px;}
	.st20{clip-path:url(#SVGID_00000083048784775095442700000001939353392062994305_);}
	.st21{fill-opacity:0;}
	.st22{fill:#808BA4;}
	.st23{font-size:25px;}
	.st24{fill-opacity:0;stroke:#000000;stroke-opacity:0;}
	.st25{font-size:16px;}
</style>
<rect class="st0" width="1800" height="600"/>
<g>
	<rect x="80" y="100" class="st1" width="921" height="420"/>
</g>
<g>
	<g>
		<g>
			<g>
				<path class="st2" d="M80,499h921"/>
				<path class="st2" d="M80,451.8h921"/>
				<path class="st2" d="M80,404.5h921"/>
				<path class="st2" d="M80,357.2h921"/>
				<path class="st2" d="M80,310h921"/>
				<path class="st2" d="M80,262.8h921"/>
				<path class="st2" d="M80,215.5h921"/>
				<path class="st2" d="M80,168.2h921"/>
				<path class="st2" d="M80,121h921"/>
			</g>
		</g>
		<path class="st2" d="M0,0"/>
		<path class="st2" d="M0,0"/>
		<g>
			<defs>
				<rect id="SVGID_1_" x="80" y="100" width="921" height="420"/>
			</defs>
			<clipPath id="SVGID_00000054224970415370920090000013411328393658196869_">
				<use xlink:href="#SVGID_1_"  style="overflow:visible;"/>
			</clipPath>
			<g transform="translate(80,100)" style="clip-path:url(#SVGID_00000054224970415370920090000013411328393658196869_);">
				<g>
					<g>
						<path class="st4" d="M67.6,44.6h33.7 M67.6,114.3h33.7V21H67.6V114.3z M84.4,114.3V210 M84.4,21L84.4,21 M76,210h16.8 M76,21
							h16.8"/>
						<g>
							<path class="st5" d="M57.5,257.2c0,1.7-1.3,3-3,3s-3-1.3-3-3s1.3-3,3-3S57.5,255.6,57.5,257.2z"/>
							<path class="st5" d="M56.5,210c0,1.7-1.3,3-3,3s-3-1.3-3-3s1.3-3,3-3S56.5,208.3,56.5,210z"/>
							<path class="st5" d="M57.8,210c0,1.7-1.3,3-3,3s-3-1.3-3-3s1.3-3,3-3S57.8,208.3,57.8,210z"/>
							<path class="st5" d="M56.3,115.5c0,1.7-1.3,3-3,3s-3-1.3-3-3s1.3-3,3-3S56.3,113.8,56.3,115.5z"/>
							<path class="st5" d="M56.9,110.8c0,1.7-1.3,3-3,3s-3-1.3-3-3s1.3-3,3-3S56.9,109.1,56.9,110.8z"/>
							<path class="st5" d="M57.6,91.9c0,1.7-1.3,3-3,3s-3-1.3-3-3s1.3-3,3-3S57.6,90.2,57.6,91.9z"/>
							<path class="st5" d="M57.1,68.2c0,1.7-1.3,3-3,3s-3-1.3-3-3s1.3-3,3-3S57.1,66.6,57.1,68.2z"/>
							<path class="st5" d="M57.4,44.6c0,1.7-1.3,3-3,3s-3-1.3-3-3s1.3-3,3-3S57.4,43,57.4,44.6z"/>
							<path class="st5" d="M56.6,21c0,1.7-1.3,3-3,3s-3-1.3-3-3s1.3-3,3-3S56.6,19.3,56.6,21z"/>
							<path class="st5" d="M55.9,21c0,1.7-1.3,3-3,3s-3-1.3-3-3s1.3-3,3-3S55.9,19.3,55.9,21z"/>
							<path class="st5" d="M57.6,21c0,1.7-1.3,3-3,3s-3-1.3-3-3s1.3-3,3-3S57.6,19.3,57.6,21z"/>
							<path class="st5" d="M56.4,21c0,1.7-1.3,3-3,3s-3-1.3-3-3s1.3-3,3-3S56.4,19.3,56.4,21z"/>
							<path class="st5" d="M58.8,21c0,1.7-1.3,3-3,3s-3-1.3-3-3s1.3-3,3-3S58.8,19.3,58.8,21z"/>
							<path class="st5" d="M52.2,21c0,1.7-1.3,3-3,3s-3-1.3-3-3s1.3-3,3-3S52.2,19.3,52.2,21z"/>
							<path class="st5" d="M54.2,21c0,1.7-1.3,3-3,3s-3-1.3-3-3s1.3-3,3-3S54.2,19.3,54.2,21z"/>
						</g>
					</g>
					<g>
						<path class="st4" d="M136.3,73H170 M136.3,158H170V58.8h-33.7V158z M153.2,158v85.1 M153.2,58.8V21 M144.7,243.1h16.8
							 M144.7,21h16.8"/>
						<g>
							<path class="st5" d="M127.1,243.1c0,1.7-1.3,3-3,3s-3-1.3-3-3s1.3-3,3-3S127.1,241.4,127.1,243.1z"/>
							<path class="st5" d="M124.2,167.5c0,1.7-1.3,3-3,3s-3-1.3-3-3s1.3-3,3-3S124.2,165.8,124.2,167.5z"/>
							<path class="st5" d="M127.9,162.8c0,1.7-1.3,3-3,3s-3-1.3-3-3s1.3-3,3-3S127.9,161.1,127.9,162.8z"/>
							<path class="st5" d="M123.6,162.8c0,1.7-1.3,3-3,3s-3-1.3-3-3s1.3-3,3-3S123.6,161.1,123.6,162.8z"/>
							<path class="st5" d="M125.2,158c0,1.7-1.3,3-3,3s-3-1.3-3-3s1.3-3,3-3S125.2,156.4,125.2,158z"/>
							<path class="st5" d="M127.4,115.5c0,1.7-1.3,3-3,3s-3-1.3-3-3s1.3-3,3-3S127.4,113.8,127.4,115.5z"/>
							<path class="st5" d="M125.7,115.5c0,1.7-1.3,3-3,3s-3-1.3-3-3s1.3-3,3-3S125.7,113.8,125.7,115.5z"/>
							<path class="st5" d="M126.9,96.6c0,1.7-1.3,3-3,3s-3-1.3-3-3s1.3-3,3-3S126.9,94.9,126.9,96.6z"/>
							<path class="st5" d="M124.6,77.7c0,1.7-1.3,3-3,3s-3-1.3-3-3s1.3-3,3-3S124.6,76,124.6,77.7z"/>
							<path class="st5" d="M123,68.2c0,1.7-1.3,3-3,3s-3-1.3-3-3s1.3-3,3-3S123,66.6,123,68.2z"/>
							<path class="st5" d="M126.9,68.2c0,1.7-1.3,3-3,3s-3-1.3-3-3s1.3-3,3-3S126.9,66.6,126.9,68.2z"/>
							<path class="st5" d="M124.5,68.2c0,1.7-1.3,3-3,3s-3-1.3-3-3s1.3-3,3-3S124.5,66.6,124.5,68.2z"/>
							<path class="st5" d="M128.7,58.8c0,1.7-1.3,3-3,3s-3-1.3-3-3s1.3-3,3-3S128.7,57.1,128.7,58.8z"/>
							<path class="st5" d="M121.1,58.8c0,1.7-1.3,3-3,3s-3-1.3-3-3s1.3-3,3-3S121.1,57.1,121.1,58.8z"/>
							<path class="st5" d="M122.9,58.8c0,1.7-1.3,3-3,3s-3-1.3-3-3s1.3-3,3-3S122.9,57.1,122.9,58.8z"/>
							<path class="st5" d="M130,21c0,1.7-1.3,3-3,3c-1.7,0-3-1.3-3-3s1.3-3,3-3C128.7,18,130,19.3,130,21z"/>
							<path class="st5" d="M124.8,21c0,1.7-1.3,3-3,3s-3-1.3-3-3s1.3-3,3-3S124.8,19.3,124.8,21z"/>
							<path class="st5" d="M122,21c0,1.7-1.3,3-3,3s-3-1.3-3-3s1.3-3,3-3S122,19.3,122,21z"/>
						</g>
					</g>
					<g>
						<path class="st6" d="M205.1,30.5h33.7 M205.1,102.5h33.7V21h-33.7V102.5z M221.9,102.5v74.4 M221.9,21L221.9,21 M213.5,176.9
							h16.8 M213.5,21h16.8"/>
						<g>
							<path class="st7" d="M194.9,304.5c0,1.7-1.3,3-3,3s-3-1.3-3-3s1.3-3,3-3S194.9,302.8,194.9,304.5z"/>
							<path class="st7" d="M194.1,176.9c0,1.7-1.3,3-3,3s-3-1.3-3-3s1.3-3,3-3S194.1,175.3,194.1,176.9z"/>
							<path class="st7" d="M195.1,162.8c0,1.7-1.3,3-3,3s-3-1.3-3-3s1.3-3,3-3S195.1,161.1,195.1,162.8z"/>
							<path class="st7" d="M193.9,106.1c0,1.7-1.3,3-3,3s-3-1.3-3-3s1.3-3,3-3S193.9,104.4,193.9,106.1z"/>
							<path class="st7" d="M194.4,91.9c0,1.7-1.3,3-3,3s-3-1.3-3-3s1.3-3,3-3S194.4,90.2,194.4,91.9z"/>
							<path class="st7" d="M195,91.9c0,1.7-1.3,3-3,3s-3-1.3-3-3s1.3-3,3-3S195,90.2,195,91.9z"/>
							<path class="st7" d="M194.5,44.6c0,1.7-1.3,3-3,3s-3-1.3-3-3s1.3-3,3-3S194.5,43,194.5,44.6z"/>
							<path class="st7" d="M194.9,30.5c0,1.7-1.3,3-3,3s-3-1.3-3-3c0-1.7,1.3-3,3-3S194.9,28.8,194.9,30.5z"/>
							<path class="st7" d="M194.1,21c0,1.7-1.3,3-3,3s-3-1.3-3-3s1.3-3,3-3S194.1,19.3,194.1,21z"/>
							<path class="st7" d="M193.3,21c0,1.7-1.3,3-3,3s-3-1.3-3-3s1.3-3,3-3S193.3,19.3,193.3,21z"/>
							<path class="st7" d="M195,21c0,1.7-1.3,3-3,3s-3-1.3-3-3s1.3-3,3-3S195,19.3,195,21z"/>
							<path class="st7" d="M193.7,21c0,1.7-1.3,3-3,3s-3-1.3-3-3s1.3-3,3-3S193.7,19.3,193.7,21z"/>
							<path class="st7" d="M197.1,21c0,1.7-1.3,3-3,3s-3-1.3-3-3s1.3-3,3-3S197.1,19.3,197.1,21z"/>
							<path class="st7" d="M189.7,21c0,1.7-1.3,3-3,3s-3-1.3-3-3s1.3-3,3-3S189.7,19.3,189.7,21z"/>
							<path class="st7" d="M191.7,21c0,1.7-1.3,3-3,3s-3-1.3-3-3s1.3-3,3-3S191.7,19.3,191.7,21z"/>
						</g>
					</g>
					<g>
						<path class="st6" d="M273.8,22h33.7 M273.8,68.2h33.7V21h-33.7V68.2z M290.6,68.2v47.2 M290.6,21L290.6,21 M282.2,115.5h16.8
							 M282.2,21h16.8"/>
						<g>
							<path class="st7" d="M263.8,148.6c0,1.7-1.3,3-3,3s-3-1.3-3-3s1.3-3,3-3S263.8,146.9,263.8,148.6z"/>
							<path class="st7" d="M262.8,115.5c0,1.7-1.3,3-3,3s-3-1.3-3-3s1.3-3,3-3S262.8,113.8,262.8,115.5z"/>
							<path class="st7" d="M264,115.5c0,1.7-1.3,3-3,3s-3-1.3-3-3s1.3-3,3-3S264,113.8,264,115.5z"/>
							<path class="st7" d="M262.6,96.6c0,1.7-1.3,3-3,3s-3-1.3-3-3s1.3-3,3-3S262.6,94.9,262.6,96.6z"/>
							<path class="st7" d="M263.1,68.2c0,1.7-1.3,3-3,3s-3-1.3-3-3s1.3-3,3-3S263.1,66.6,263.1,68.2z"/>
							<path class="st7" d="M263.8,58.8c0,1.7-1.3,3-3,3s-3-1.3-3-3s1.3-3,3-3S263.8,57.1,263.8,58.8z"/>
							<path class="st7" d="M263.3,54.1c0,1.7-1.3,3-3,3s-3-1.3-3-3s1.3-3,3-3S263.3,52.4,263.3,54.1z"/>
							<path class="st7" d="M263.7,21c0,1.7-1.3,3-3,3s-3-1.3-3-3s1.3-3,3-3S263.7,19.3,263.7,21z"/>
							<path class="st7" d="M262.9,21c0,1.7-1.3,3-3,3s-3-1.3-3-3s1.3-3,3-3S262.9,19.3,262.9,21z"/>
							<path class="st7" d="M262.2,21c0,1.7-1.3,3-3,3s-3-1.3-3-3s1.3-3,3-3S262.2,19.3,262.2,21z"/>
							<path class="st7" d="M263.8,21c0,1.7-1.3,3-3,3s-3-1.3-3-3s1.3-3,3-3S263.8,19.3,263.8,21z"/>
							<path class="st7" d="M262.7,21c0,1.7-1.3,3-3,3s-3-1.3-3-3s1.3-3,3-3S262.7,19.3,262.7,21z"/>
							<path class="st7" d="M266.5,21c0,1.7-1.3,3-3,3s-3-1.3-3-3s1.3-3,3-3S266.5,19.3,266.5,21z"/>
							<path class="st7" d="M258.4,21c0,1.7-1.3,3-3,3s-3-1.3-3-3s1.3-3,3-3S258.4,19.3,258.4,21z"/>
							<path class="st7" d="M260.4,21c0,1.7-1.3,3-3,3s-3-1.3-3-3s1.3-3,3-3S260.4,19.3,260.4,21z"/>
							<path class="st7" d="M267.8,21c0,1.7-1.3,3-3,3s-3-1.3-3-3s1.3-3,3-3S267.8,19.3,267.8,21z"/>
							<path class="st7" d="M262.1,21c0,1.7-1.3,3-3,3s-3-1.3-3-3s1.3-3,3-3S262.1,19.3,262.1,21z"/>
							<path class="st7" d="M259,21c0,1.7-1.3,3-3,3c-1.7,0-3-1.3-3-3s1.3-3,3-3C257.6,18,259,19.3,259,21z"/>
						</g>
					</g>
					<g>
						<path class="st8" d="M342.5,68.2h33.7 M342.5,147.4h33.7V21h-33.7V147.4z M359.4,147.4V210 M359.4,21L359.4,21 M351,210h16.9
							 M351,21h16.9"/>
						<g>
							<path class="st9" d="M333.1,210c0,1.7-1.3,3-3,3s-3-1.3-3-3s1.3-3,3-3S333.1,208.3,333.1,210z"/>
							<path class="st9" d="M330.8,210c0,1.7-1.3,3-3,3s-3-1.3-3-3s1.3-3,3-3S330.8,208.3,330.8,210z"/>
							<path class="st9" d="M333.5,176.9c0,1.7-1.3,3-3,3s-3-1.3-3-3s1.3-3,3-3S333.5,175.3,333.5,176.9z"/>
							<path class="st9" d="M330.5,158c0,1.7-1.3,3-3,3s-3-1.3-3-3s1.3-3,3-3S330.5,156.4,330.5,158z"/>
							<path class="st9" d="M331.6,115.5c0,1.7-1.3,3-3,3s-3-1.3-3-3s1.3-3,3-3S331.6,113.8,331.6,115.5z"/>
							<path class="st9" d="M333.1,110.8c0,1.7-1.3,3-3,3s-3-1.3-3-3s1.3-3,3-3S333.1,109.1,333.1,110.8z"/>
							<path class="st9" d="M332,106.1c0,1.7-1.3,3-3,3s-3-1.3-3-3s1.3-3,3-3S332,104.4,332,106.1z"/>
							<path class="st9" d="M332.7,68.2c0,1.7-1.3,3-3,3s-3-1.3-3-3s1.3-3,3-3S332.7,66.6,332.7,68.2z"/>
							<path class="st9" d="M331.3,44.6c0,1.7-1.3,3-3,3s-3-1.3-3-3s1.3-3,3-3S331.3,43,331.3,44.6z"/>
							<path class="st9" d="M330,35.2c0,1.7-1.3,3-3,3s-3-1.3-3-3s1.3-3,3-3S330,33.5,330,35.2z"/>
							<path class="st9" d="M332.8,21c0,1.7-1.3,3-3,3s-3-1.3-3-3s1.3-3,3-3S332.8,19.3,332.8,21z"/>
							<path class="st9" d="M331.2,21c0,1.7-1.3,3-3,3s-3-1.3-3-3s1.3-3,3-3S331.2,19.3,331.2,21z"/>
							<path class="st9" d="M334.1,21c0,1.7-1.3,3-3,3s-3-1.3-3-3s1.3-3,3-3S334.1,19.3,334.1,21z"/>
							<path class="st9" d="M327.9,21c0,1.7-1.3,3-3,3s-3-1.3-3-3s1.3-3,3-3S327.9,19.3,327.9,21z"/>
							<path class="st9" d="M329.1,21c0,1.7-1.3,3-3,3s-3-1.3-3-3s1.3-3,3-3S329.1,19.3,329.1,21z"/>
						</g>
					</g>
					<g>
						<path class="st8" d="M411.3,68.2H445 M411.3,116.7H445V21h-33.7V116.7z M428.1,116.7v46.1 M428.1,21L428.1,21 M419.7,162.8
							h16.8 M419.7,21h16.8"/>
						<g>
							<path class="st9" d="M401.6,162.8c0,1.7-1.3,3-3,3s-3-1.3-3-3s1.3-3,3-3S401.6,161.1,401.6,162.8z"/>
							<path class="st9" d="M399.8,148.6c0,1.7-1.3,3-3,3s-3-1.3-3-3s1.3-3,3-3S399.8,146.9,399.8,148.6z"/>
							<path class="st9" d="M402,134.4c0,1.7-1.3,3-3,3s-3-1.3-3-3s1.3-3,3-3S402,132.7,402,134.4z"/>
							<path class="st9" d="M399.6,120.2c0,1.7-1.3,3-3,3s-3-1.3-3-3s1.3-3,3-3S399.6,118.6,399.6,120.2z"/>
							<path class="st9" d="M400.5,115.5c0,1.7-1.3,3-3,3s-3-1.3-3-3s1.3-3,3-3S400.5,113.8,400.5,115.5z"/>
							<path class="st9" d="M401.6,115.5c0,1.7-1.3,3-3,3s-3-1.3-3-3s1.3-3,3-3S401.6,113.8,401.6,115.5z"/>
							<path class="st9" d="M400.8,106.1c0,1.7-1.3,3-3,3s-3-1.3-3-3s1.3-3,3-3S400.8,104.4,400.8,106.1z"/>
							<path class="st9" d="M401.2,87.2c0,1.7-1.3,3-3,3s-3-1.3-3-3s1.3-3,3-3S401.2,85.5,401.2,87.2z"/>
							<path class="st9" d="M400.3,68.2c0,1.7-1.3,3-3,3s-3-1.3-3-3s1.3-3,3-3S400.3,66.6,400.3,68.2z"/>
							<path class="st9" d="M399.6,63.5c0,1.7-1.3,3-3,3s-3-1.3-3-3s1.3-3,3-3S399.6,61.9,399.6,63.5z"/>
							<path class="st9" d="M401.2,54.1c0,1.7-1.3,3-3,3s-3-1.3-3-3s1.3-3,3-3S401.2,52.4,401.2,54.1z"/>
							<path class="st9" d="M400.2,21c0,1.7-1.3,3-3,3s-3-1.3-3-3s1.3-3,3-3S400.2,19.3,400.2,21z"/>
							<path class="st9" d="M402,21c0,1.7-1.3,3-3,3s-3-1.3-3-3s1.3-3,3-3S402,19.3,402,21z"/>
							<path class="st9" d="M398.8,21c0,1.7-1.3,3-3,3s-3-1.3-3-3s1.3-3,3-3S398.8,19.3,398.8,21z"/>
							<path class="st9" d="M399.6,21c0,1.7-1.3,3-3,3s-3-1.3-3-3s1.3-3,3-3S399.6,19.3,399.6,21z"/>
							<path class="st9" d="M402.7,21c0,1.7-1.3,3-3,3s-3-1.3-3-3s1.3-3,3-3S402.7,19.3,402.7,21z"/>
							<path class="st9" d="M399.5,21c0,1.7-1.3,3-3,3s-3-1.3-3-3s1.3-3,3-3S399.5,19.3,399.5,21z"/>
						</g>
					</g>
					<g>
						<path class="st10" d="M480,110.8h33.7 M480,115.5h33.7V68.2H480V115.5z M496.9,115.5v47.2 M496.9,68.2V21 M488.5,162.8h16.8
							 M488.5,21h16.8"/>
						<g>
							<path class="st11" d="M471.1,257.2c0,1.7-1.3,3-3,3s-3-1.3-3-3s1.3-3,3-3S471.1,255.6,471.1,257.2z"/>
							<path class="st11" d="M467.5,210c0,1.7-1.3,3-3,3s-3-1.3-3-3s1.3-3,3-3S467.5,208.3,467.5,210z"/>
							<path class="st11" d="M472.2,162.8c0,1.7-1.3,3-3,3s-3-1.3-3-3s1.3-3,3-3S472.2,161.1,472.2,162.8z"/>
							<path class="st11" d="M466.5,115.5c0,1.7-1.3,3-3,3s-3-1.3-3-3s1.3-3,3-3S466.5,113.8,466.5,115.5z"/>
							<path class="st11" d="M468.6,115.5c0,1.7-1.3,3-3,3s-3-1.3-3-3s1.3-3,3-3S468.6,113.8,468.6,115.5z"/>
							<path class="st11" d="M471.4,115.5c0,1.7-1.3,3-3,3s-3-1.3-3-3s1.3-3,3-3S471.4,113.8,471.4,115.5z"/>
							<path class="st11" d="M469.4,115.5c0,1.7-1.3,3-3,3s-3-1.3-3-3s1.3-3,3-3S469.4,113.8,469.4,115.5z"/>
							<path class="st11" d="M470.9,110.8c0,1.7-1.3,3-3,3s-3-1.3-3-3s1.3-3,3-3S470.9,109.1,470.9,110.8z"/>
							<path class="st11" d="M467.9,106.1c0,1.7-1.3,3-3,3s-3-1.3-3-3s1.3-3,3-3S467.9,104.4,467.9,106.1z"/>
							<path class="st11" d="M465.9,96.6c0,1.7-1.3,3-3,3s-3-1.3-3-3s1.3-3,3-3S465.9,94.9,465.9,96.6z"/>
							<path class="st11" d="M470.8,68.2c0,1.7-1.3,3-3,3s-3-1.3-3-3s1.3-3,3-3S470.8,66.6,470.8,68.2z"/>
							<path class="st11" d="M468.1,68.2c0,1.7-1.3,3-3,3s-3-1.3-3-3s1.3-3,3-3S468.1,66.6,468.1,68.2z"/>
							<path class="st11" d="M472.3,49.3c0,1.7-1.3,3-3,3s-3-1.3-3-3s1.3-3,3-3S472.3,47.7,472.3,49.3z"/>
							<path class="st11" d="M465.5,21c0,1.7-1.3,3-3,3s-3-1.3-3-3s1.3-3,3-3S465.5,19.3,465.5,21z"/>
							<path class="st11" d="M467.2,21c0,1.7-1.3,3-3,3s-3-1.3-3-3s1.3-3,3-3S467.2,19.3,467.2,21z"/>
						</g>
					</g>
					<g>
						<path class="st10" d="M548.8,99h33.7 M548.8,162.8h33.7V21h-33.7V162.8z M565.6,162.8v56.7 M565.6,21L565.6,21 M557.2,219.4
							H574 M557.2,21H574"/>
						<g>
							<path class="st11" d="M539,219.4c0,1.7-1.3,3-3,3s-3-1.3-3-3s1.3-3,3-3S539,217.8,539,219.4z"/>
							<path class="st11" d="M537.4,210c0,1.7-1.3,3-3,3s-3-1.3-3-3s1.3-3,3-3S537.4,208.3,537.4,210z"/>
							<path class="st11" d="M539.5,162.8c0,1.7-1.3,3-3,3s-3-1.3-3-3s1.3-3,3-3S539.5,161.1,539.5,162.8z"/>
							<path class="st11" d="M536.9,162.8c0,1.7-1.3,3-3,3s-3-1.3-3-3s1.3-3,3-3S536.9,161.1,536.9,162.8z"/>
							<path class="st11" d="M537.9,162.8c0,1.7-1.3,3-3,3s-3-1.3-3-3s1.3-3,3-3S537.9,161.1,537.9,162.8z"/>
							<path class="st11" d="M539.1,115.5c0,1.7-1.3,3-3,3s-3-1.3-3-3s1.3-3,3-3S539.1,113.8,539.1,115.5z"/>
							<path class="st11" d="M538.2,115.5c0,1.7-1.3,3-3,3s-3-1.3-3-3s1.3-3,3-3S538.2,113.8,538.2,115.5z"/>
							<path class="st11" d="M538.8,115.5c0,1.7-1.3,3-3,3s-3-1.3-3-3s1.3-3,3-3S538.8,113.8,538.8,115.5z"/>
							<path class="st11" d="M537.8,106.1c0,1.7-1.3,3-3,3s-3-1.3-3-3s1.3-3,3-3S537.8,104.4,537.8,106.1z"/>
							<path class="st11" d="M537.1,91.9c0,1.7-1.3,3-3,3s-3-1.3-3-3s1.3-3,3-3S537.1,90.2,537.1,91.9z"/>
							<path class="st11" d="M538.8,68.2c0,1.7-1.3,3-3,3s-3-1.3-3-3s1.3-3,3-3S538.8,66.6,538.8,68.2z"/>
							<path class="st11" d="M537.7,54.1c0,1.7-1.3,3-3,3s-3-1.3-3-3s1.3-3,3-3S537.7,52.4,537.7,54.1z"/>
							<path class="st11" d="M539.5,25.7c0,1.7-1.3,3-3,3s-3-1.3-3-3s1.3-3,3-3S539.5,24.1,539.5,25.7z"/>
							<path class="st11" d="M536.4,21c0,1.7-1.3,3-3,3s-3-1.3-3-3s1.3-3,3-3S536.4,19.3,536.4,21z"/>
							<path class="st11" d="M537.1,21c0,1.7-1.3,3-3,3s-3-1.3-3-3s1.3-3,3-3S537.1,19.3,537.1,21z"/>
							<path class="st11" d="M540.3,21c0,1.7-1.3,3-3,3s-3-1.3-3-3s1.3-3,3-3S540.3,19.3,540.3,21z"/>
							<path class="st11" d="M537.7,21c0,1.7-1.3,3-3,3s-3-1.3-3-3s1.3-3,3-3S537.7,19.3,537.7,21z"/>
							<path class="st11" d="M534,21c0,1.7-1.3,3-3,3s-3-1.3-3-3s1.3-3,3-3S534,19.3,534,21z"/>
						</g>
					</g>
					<g>
						<path class="st12" d="M617.5,172.2h33.7 M617.5,245.4h33.7V91.9h-33.7V245.4z M634.3,245.4V399 M634.3,91.9V21 M625.9,399
							h16.8 M625.9,21h16.8"/>
						<g>
							<path class="st13" d="M608.9,399c0,1.7-1.3,3-3,3s-3-1.3-3-3s1.3-3,3-3S608.9,397.3,608.9,399z"/>
							<path class="st13" d="M604.5,285.6c0,1.7-1.3,3-3,3s-3-1.3-3-3s1.3-3,3-3S604.5,283.9,604.5,285.6z"/>
							<path class="st13" d="M610,257.2c0,1.7-1.3,3-3,3s-3-1.3-3-3s1.3-3,3-3S610,255.6,610,257.2z"/>
							<path class="st13" d="M603.7,257.2c0,1.7-1.3,3-3,3s-3-1.3-3-3s1.3-3,3-3S603.7,255.6,603.7,257.2z"/>
							<path class="st13" d="M606.1,210c0,1.7-1.3,3-3,3s-3-1.3-3-3s1.3-3,3-3S606.1,208.3,606.1,210z"/>
							<path class="st13" d="M609.1,210c0,1.7-1.3,3-3,3s-3-1.3-3-3s1.3-3,3-3S609.1,208.3,609.1,210z"/>
							<path class="st13" d="M606.8,210c0,1.7-1.3,3-3,3s-3-1.3-3-3s1.3-3,3-3S606.8,208.3,606.8,210z"/>
							<path class="st13" d="M608.4,172.2c0,1.7-1.3,3-3,3s-3-1.3-3-3s1.3-3,3-3S608.4,170.5,608.4,172.2z"/>
							<path class="st13" d="M605.6,158c0,1.7-1.3,3-3,3s-3-1.3-3-3s1.3-3,3-3S605.6,156.4,605.6,158z"/>
							<path class="st13" d="M603.3,115.5c0,1.7-1.3,3-3,3s-3-1.3-3-3s1.3-3,3-3S603.3,113.8,603.3,115.5z"/>
							<path class="st13" d="M608.3,91.9c0,1.7-1.3,3-3,3s-3-1.3-3-3s1.3-3,3-3S608.3,90.2,608.3,91.9z"/>
							<path class="st13" d="M605.5,91.9c0,1.7-1.3,3-3,3s-3-1.3-3-3s1.3-3,3-3S605.5,90.2,605.5,91.9z"/>
							<path class="st13" d="M610,30.5c0,1.7-1.3,3-3,3s-3-1.3-3-3c0-1.7,1.3-3,3-3S610,28.8,610,30.5z"/>
							<path class="st13" d="M602.6,21c0,1.7-1.3,3-3,3s-3-1.3-3-3s1.3-3,3-3S602.6,19.3,602.6,21z"/>
							<path class="st13" d="M604.1,21c0,1.7-1.3,3-3,3s-3-1.3-3-3s1.3-3,3-3S604.1,19.3,604.1,21z"/>
						</g>
					</g>
					<g>
						<path class="st12" d="M686.2,219.4h33.7 M686.2,257.2h33.7V115.5h-33.7V257.2z M703.1,257.2V399 M703.1,115.5V21 M694.7,399
							h16.9 M694.7,21h16.9"/>
						<g>
							<path class="st13" d="M677.6,399c0,1.7-1.3,3-3,3s-3-1.3-3-3s1.3-3,3-3S677.6,397.3,677.6,399z"/>
							<path class="st13" d="M673.3,351.8c0,1.7-1.3,3-3,3s-3-1.3-3-3s1.3-3,3-3S673.3,350.1,673.3,351.8z"/>
							<path class="st13" d="M678.9,351.8c0,1.7-1.3,3-3,3s-3-1.3-3-3s1.3-3,3-3S678.9,350.1,678.9,351.8z"/>
							<path class="st13" d="M672.3,257.2c0,1.7-1.3,3-3,3s-3-1.3-3-3s1.3-3,3-3S672.3,255.6,672.3,257.2z"/>
							<path class="st13" d="M674.8,257.2c0,1.7-1.3,3-3,3s-3-1.3-3-3s1.3-3,3-3S674.8,255.6,674.8,257.2z"/>
							<path class="st13" d="M678,257.2c0,1.7-1.3,3-3,3s-3-1.3-3-3s1.3-3,3-3S678,255.6,678,257.2z"/>
							<path class="st13" d="M675.6,252.5c0,1.7-1.3,3-3,3s-3-1.3-3-3s1.3-3,3-3S675.6,250.9,675.6,252.5z"/>
							<path class="st13" d="M677,238.4c0,1.7-1.3,3-3,3s-3-1.3-3-3s1.3-3,3-3S677,236.7,677,238.4z"/>
							<path class="st13" d="M674.2,228.9c0,1.7-1.3,3-3,3s-3-1.3-3-3s1.3-3,3-3S674.2,227.2,674.2,228.9z"/>
							<path class="st13" d="M672.1,210c0,1.7-1.3,3-3,3s-3-1.3-3-3s1.3-3,3-3S672.1,208.3,672.1,210z"/>
							<path class="st13" d="M677.1,200.6c0,1.7-1.3,3-3,3s-3-1.3-3-3s1.3-3,3-3S677.1,198.9,677.1,200.6z"/>
							<path class="st13" d="M674.5,181.6c0,1.7-1.3,3-3,3s-3-1.3-3-3s1.3-3,3-3S674.5,180,674.5,181.6z"/>
							<path class="st13" d="M678.4,153.3c0,1.7-1.3,3-3,3s-3-1.3-3-3s1.3-3,3-3S678.4,151.6,678.4,153.3z"/>
							<path class="st13" d="M671.9,115.5c0,1.7-1.3,3-3,3s-3-1.3-3-3s1.3-3,3-3S671.9,113.8,671.9,115.5z"/>
							<path class="st13" d="M673.5,115.5c0,1.7-1.3,3-3,3s-3-1.3-3-3s1.3-3,3-3S673.5,113.8,673.5,115.5z"/>
							<path class="st13" d="M679.1,115.5c0,1.7-1.3,3-3,3s-3-1.3-3-3s1.3-3,3-3S679.1,113.8,679.1,115.5z"/>
							<path class="st13" d="M674.9,21c0,1.7-1.3,3-3,3s-3-1.3-3-3s1.3-3,3-3S674.9,19.3,674.9,21z"/>
							<path class="st13" d="M672.6,21c0,1.7-1.3,3-3,3s-3-1.3-3-3s1.3-3,3-3S672.6,19.3,672.6,21z"/>
						</g>
					</g>
					<g>
						<path class="st14" d="M755,153.3h33.7 M755,198.2h33.7v-96.9H755V198.2z M771.8,198.2v92.1 M771.8,101.3V21 M763.4,290.3h16.8
							 M763.4,21h16.8"/>
						<g>
							<path class="st15" d="M746.5,290.3c0,1.7-1.3,3-3,3s-3-1.3-3-3s1.3-3,3-3S746.5,288.7,746.5,290.3z"/>
							<path class="st15" d="M741.9,257.2c0,1.7-1.3,3-3,3s-3-1.3-3-3s1.3-3,3-3S741.9,255.6,741.9,257.2z"/>
							<path class="st15" d="M747.9,257.2c0,1.7-1.3,3-3,3s-3-1.3-3-3s1.3-3,3-3S747.9,255.6,747.9,257.2z"/>
							<path class="st15" d="M741.1,210c0,1.7-1.3,3-3,3s-3-1.3-3-3s1.3-3,3-3S741.1,208.3,741.1,210z"/>
							<path class="st15" d="M743.5,162.8c0,1.7-1.3,3-3,3s-3-1.3-3-3s1.3-3,3-3S743.5,161.1,743.5,162.8z"/>
							<path class="st15" d="M746.9,162.8c0,1.7-1.3,3-3,3s-3-1.3-3-3s1.3-3,3-3S746.9,161.1,746.9,162.8z"/>
							<path class="st15" d="M744.3,162.8c0,1.7-1.3,3-3,3s-3-1.3-3-3s1.3-3,3-3S744.3,161.1,744.3,162.8z"/>
							<path class="st15" d="M745.7,153.3c0,1.7-1.3,3-3,3s-3-1.3-3-3s1.3-3,3-3S745.7,151.6,745.7,153.3z"/>
							<path class="st15" d="M743.1,115.5c0,1.7-1.3,3-3,3s-3-1.3-3-3s1.3-3,3-3S743.1,113.8,743.1,115.5z"/>
							<path class="st15" d="M740.8,115.5c0,1.7-1.3,3-3,3s-3-1.3-3-3s1.3-3,3-3S740.8,113.8,740.8,115.5z"/>
							<path class="st15" d="M745.8,115.5c0,1.7-1.3,3-3,3s-3-1.3-3-3s1.3-3,3-3S745.8,113.8,745.8,115.5z"/>
							<path class="st15" d="M743,96.6c0,1.7-1.3,3-3,3s-3-1.3-3-3s1.3-3,3-3S743,94.9,743,96.6z"/>
							<path class="st15" d="M747.3,44.6c0,1.7-1.3,3-3,3s-3-1.3-3-3s1.3-3,3-3S747.3,43,747.3,44.6z"/>
							<path class="st15" d="M739.9,21c0,1.7-1.3,3-3,3s-3-1.3-3-3s1.3-3,3-3S739.9,19.3,739.9,21z"/>
							<path class="st15" d="M742,21c0,1.7-1.3,3-3,3s-3-1.3-3-3s1.3-3,3-3S742,19.3,742,21z"/>
						</g>
					</g>
					<g>
						<path class="st14" d="M823.7,115.5h33.7 M823.7,210h33.7V87.2h-33.7V210z M840.6,210v108.7 M840.6,87.2V21 M832.2,318.7H849
							 M832.2,21H849"/>
						<g>
							<path class="st15" d="M814.7,318.7c0,1.7-1.3,3-3,3s-3-1.3-3-3s1.3-3,3-3S814.7,317,814.7,318.7z"/>
							<path class="st15" d="M811.5,266.7c0,1.7-1.3,3-3,3s-3-1.3-3-3s1.3-3,3-3S811.5,265,811.5,266.7z"/>
							<path class="st15" d="M815.5,257.2c0,1.7-1.3,3-3,3s-3-1.3-3-3s1.3-3,3-3S815.5,255.6,815.5,257.2z"/>
							<path class="st15" d="M810.7,228.9c0,1.7-1.3,3-3,3s-3-1.3-3-3s1.3-3,3-3S810.7,227.2,810.7,228.9z"/>
							<path class="st15" d="M812.5,210c0,1.7-1.3,3-3,3s-3-1.3-3-3s1.3-3,3-3S812.5,208.3,812.5,210z"/>
							<path class="st15" d="M815.1,167.5c0,1.7-1.3,3-3,3s-3-1.3-3-3s1.3-3,3-3S815.1,165.8,815.1,167.5z"/>
							<path class="st15" d="M813.1,124.9c0,1.7-1.3,3-3,3s-3-1.3-3-3s1.3-3,3-3S813.1,123.3,813.1,124.9z"/>
							<path class="st15" d="M814.4,115.5c0,1.7-1.3,3-3,3s-3-1.3-3-3s1.3-3,3-3S814.4,113.8,814.4,115.5z"/>
							<path class="st15" d="M812,115.5c0,1.7-1.3,3-3,3s-3-1.3-3-3s1.3-3,3-3S812,113.8,812,115.5z"/>
							<path class="st15" d="M810.3,115.5c0,1.7-1.3,3-3,3s-3-1.3-3-3s1.3-3,3-3S810.3,113.8,810.3,115.5z"/>
							<path class="st15" d="M814.5,115.5c0,1.7-1.3,3-3,3s-3-1.3-3-3s1.3-3,3-3S814.5,113.8,814.5,115.5z"/>
							<path class="st15" d="M811.7,110.8c0,1.7-1.3,3-3,3s-3-1.3-3-3s1.3-3,3-3S811.7,109.1,811.7,110.8z"/>
							<path class="st15" d="M816.5,106.1c0,1.7-1.3,3-3,3s-3-1.3-3-3s1.3-3,3-3S816.5,104.4,816.5,106.1z"/>
							<path class="st15" d="M808.6,87.2c0,1.7-1.3,3-3,3s-3-1.3-3-3s1.3-3,3-3S808.6,85.5,808.6,87.2z"/>
							<path class="st15" d="M810.7,63.5c0,1.7-1.3,3-3,3s-3-1.3-3-3s1.3-3,3-3S810.7,61.9,810.7,63.5z"/>
							<path class="st15" d="M817,63.5c0,1.7-1.3,3-3,3s-3-1.3-3-3s1.3-3,3-3S817,61.9,817,63.5z"/>
							<path class="st15" d="M812.3,21c0,1.7-1.3,3-3,3s-3-1.3-3-3s1.3-3,3-3S812.3,19.3,812.3,21z"/>
							<path class="st15" d="M810,21c0,1.7-1.3,3-3,3s-3-1.3-3-3s1.3-3,3-3S810,19.3,810,21z"/>
						</g>
					</g>
				</g>
			</g>
		</g>
		<path class="st16" d="M0,0"/>
		<path class="st16" d="M0,0"/>
		<g>
			<g>
				<text transform="matrix(1 0 0 1 56.1133 505.3)" class="st17 st18 st19">20</text>
			</g>
			<g>
				<text transform="matrix(1 0 0 1 56.1133 458.05)" class="st17 st18 st19">30</text>
			</g>
			<g>
				<text transform="matrix(1 0 0 1 56.1133 410.8)" class="st17 st18 st19">40</text>
			</g>
			<g>
				<text transform="matrix(1 0 0 1 56.1133 363.55)" class="st17 st18 st19">50</text>
			</g>
			<g>
				<text transform="matrix(1 0 0 1 56.1133 316.3)" class="st17 st18 st19">60</text>
			</g>
			<g>
				<text transform="matrix(1 0 0 1 56.1133 269.05)" class="st17 st18 st19">70</text>
			</g>
			<g>
				<text transform="matrix(1 0 0 1 56.1133 221.8)" class="st17 st18 st19">80</text>
			</g>
			<g>
				<text transform="matrix(1 0 0 1 56.1133 174.55)" class="st17 st18 st19">90</text>
			</g>
			<g>
				<text transform="matrix(1 0 0 1 44.6699 127.3)" class="st17 st18 st19">100</text>
			</g>
		</g>
	</g>
</g>
<g>
	<g transform="translate(1019.4200000000001,100)" pointer-events="all">
		<rect x="0" shape-rendering="crispEdges" class="st0" width="769" height="169"/>
		<g>
			<defs>
				<rect id="SVGID_00000008142521979108485780000008705591087163594661_" x="0" width="769" height="169"/>
			</defs>
			<clipPath id="SVGID_00000127755386353293760720000013770007129971285392_">
				<use xlink:href="#SVGID_00000008142521979108485780000008705591087163594661_"  style="overflow:visible;"/>
			</clipPath>
			<g transform="" style="clip-path:url(#SVGID_00000127755386353293760720000013770007129971285392_);">
				<g>
					<g transform="translate(0,18.200000000000003)">
						<text transform="matrix(1 0 0 1 39.9999 7.02)" class="st17 st18 st19">I felt comfortable learning in this workshop</text>
						<g>
							<g>
								<g>
									<path class="st4" d="M26,6H14V-6h12V6z"/>
								</g>
							</g>
						</g>
						<rect x="0" y="-13.2" class="st21" width="763.2" height="26.4"/>
					</g>
					<g transform="translate(0,44.6)">
						<text transform="matrix(1 0 0 1 39.9999 7.02)" class="st17 st18 st19">The set up instructions were easy to follow</text>
						<g>
							<g>
								<g>
									<path class="st6" d="M26,6H14V-6h12V6z"/>
								</g>
							</g>
						</g>
						<rect x="0" y="-13.2" class="st21" width="763.2" height="26.4"/>
					</g>
					<g transform="translate(0,71)">
						<text transform="matrix(1 0 0 1 39.9999 7.02)" class="st17 st18 st19">The workshop description and level were accurate</text>
						<g>
							<g>
								<g>
									<path class="st8" d="M26,6H14V-6h12V6z"/>
								</g>
							</g>
						</g>
						<rect x="0" y="-13.2" class="st21" width="763.2" height="26.4"/>
					</g>
					<g transform="translate(0,97.4)">
						<text transform="matrix(1 0 0 1 39.9999 7.02)" class="st17 st18 st19">The workshop taught me what I wanted to learn</text>
						<g>
							<g>
								<g>
									<path class="st10" d="M26,6H14V-6h12V6z"/>
								</g>
							</g>
						</g>
						<rect x="0" y="-13.2" class="st21" width="763.2" height="26.4"/>
					</g>
					<g transform="translate(0,123.80000000000001)">
						<text transform="matrix(1 0 0 1 39.9999 7.02)" class="st17 st18 st19">I can immediately apply what I learned</text>
						<g>
							<g>
								<g>
									<path class="st12" d="M26,6H14V-6h12V6z"/>
								</g>
							</g>
						</g>
						<rect x="0" y="-13.2" class="st21" width="763.2" height="26.4"/>
					</g>
					<g transform="translate(0,150.2)">
						<text transform="matrix(1 0 0 1 39.9999 7.02)" class="st17 st18 st19">I feel confident enough to continue learning about machine learning on my own</text>
						<g>
							<g>
								<g>
									<path class="st14" d="M26,6H14V-6h12V6z"/>
								</g>
							</g>
						</g>
						<rect x="0" y="-13.2" class="st21" width="763.2" height="26.4"/>
					</g>
				</g>
			</g>
		</g>
		<polygon class="st22" points="0,0 0,0 0,0 0,0 0,0 0,0 0,0 0,0 		"/>
	</g>
	<g>
		<text transform="matrix(1 0 0 1 90 50)" class="st17 st18 st23">Agreement with statements: 0 = complete disagreement, 100 = complete agreement, Run#1 left, Run#2 right</text>
	</g>
	<g>
		<g transform="rotate(0,540.5,91)">
			<g transform="translate(314,79)">
				<rect x="0.5" y="0.5" class="st24" width="453" height="23"/>
				<text transform="matrix(1 0 0 1 2.1602 18)" class="st17 st18 st25">median across all data for Run#1: 85.5, Run #2: 86.25</text>
			</g>
		</g>
	</g>
</g>
</svg>
