<?xml version="1.0" encoding="utf-8"?>
<!-- Generator: Adobe Illustrator 27.5.0, SVG Export Plug-In . SVG Version: 6.00 Build 0)  -->
<svg version="1.1" id="Layer_1" xmlns="http://www.w3.org/2000/svg" xmlns:xlink="http://www.w3.org/1999/xlink" x="0px" y="0px"
	 viewBox="0 0 1614.2 560" style="enable-background:new 0 0 1614.2 560;" xml:space="preserve">
<style type="text/css">
	.st0{fill:#E5ECF6;}
	.st1{stroke:#FFFFFF;}
	.st2{stroke:#FFFFFF;stroke-width:2;}
	.st3{clip-path:url(#SVGID_00000092415270622977038930000010765038806890975656_);}
	.st4{fill:#00467F;stroke:#E5ECF6;stroke-width:0.5;}
	.st5{fill:#2A3F5F;}
	.st6{font-family:'Verdana';}
	.st7{font-size:18px;}
	.st8{fill:#00467F;}
	.st9{fill:#009AC7;stroke:#E5ECF6;stroke-width:0.5;}
	.st10{fill:none;}
	.st11{fill:#FFFFFF;}
	.st12{clip-path:url(#SVGID_00000025434556736091810230000013358628430596672950_);}
	.st13{fill-opacity:0;}
	.st14{fill:#808BA4;}
	.st15{font-size:25px;}
	.st16{fill-opacity:0;stroke:#000000;stroke-opacity:0;}
	.st17{font-size:16px;}
</style>
<g>
	<rect x="32" y="77" class="st0" width="1564" height="420"/>
</g>
<g>
	<g>
		<g>
			<g>
				<path class="st1" d="M32,413h1564"/>
				<path class="st1" d="M32,329h1564"/>
				<path class="st1" d="M32,245h1564"/>
				<path class="st1" d="M32,161h1564"/>
			</g>
		</g>
		<g>
			<path class="st2" d="M32,497h1564"/>
		</g>
		<path class="st2" d="M-48-23"/>
		<path class="st2" d="M-48-23"/>
		<g>
			<defs>
				<rect id="SVGID_1_" x="32" y="77" width="1564" height="420"/>
			</defs>
			<clipPath id="SVGID_00000140700608816994443540000010043900928327438512_">
				<use xlink:href="#SVGID_1_"  style="overflow:visible;"/>
			</clipPath>
			<g transform="translate(80,100)" style="clip-path:url(#SVGID_00000140700608816994443540000010043900928327438512_);">
				<g>
					<g>
						<g>
							<g>
								<path class="st4" d="M1445.6,397V61h70.4v336H1445.6z"/>
								<text transform="matrix(1 0 0 1 1475.0884 54)" class="st5 st6 st7">8</text>
							</g>
							<g>
								<path class="st4" d="M1132.8,397V271h70.4v126H1132.8z"/>
								<text transform="matrix(1 0 0 1 1162.2883 264)" class="st5 st6 st7">3</text>
							</g>
							<g>
								<path class="st4" d="M976.4,397v-84h70.4v84H976.4z"/>
								<text transform="matrix(1 0 0 1 1005.8883 306)" class="st5 st6 st7">2</text>
							</g>
							<g>
								<path class="st4" d="M507.2,397v-42h70.4v42H507.2z"/>
								<text transform="matrix(1 0 0 1 536.6883 348)" class="st5 st6 st7">1</text>
							</g>
							<g>
								<path class="st4" d="M1289.2,397v-42h70.4v42H1289.2z"/>
								<text transform="matrix(1 0 0 1 1318.6884 348)" class="st5 st6 st7">1</text>
							</g>
							<g>
								<path class="st8" d="M-48-23"/>
							</g>
						</g>
					</g>
					<g>
						<g>
							<g>
								<path class="st9" d="M1516,397V19h70.4v378H1516z"/>
								<text transform="matrix(1 0 0 1 1545.4683 12)" class="st5 st6 st7">9</text>
							</g>
							<g>
								<path class="st9" d="M1203.2,397V229h70.4v168H1203.2z"/>
								<text transform="matrix(1 0 0 1 1232.6683 222)" class="st5 st6 st7">4</text>
							</g>
							<g>
								<path class="st9" d="M1046.8,397v-42h70.4v42H1046.8z"/>
								<text transform="matrix(1 0 0 1 1076.2683 348)" class="st5 st6 st7">1</text>
							</g>
							<g>
								<path class="st9" d="M577.6,397v-42H648v42H577.6z"/>
								<text transform="matrix(1 0 0 1 607.0683 348)" class="st5 st6 st7">1</text>
							</g>
							<g>
								<path class="st9" d="M1359.6,397v-84h70.4v84H1359.6z"/>
								<text transform="matrix(1 0 0 1 1389.0684 306)" class="st5 st6 st7">2</text>
							</g>
							<g>
								<path class="st9" d="M890.4,397v-42h70.4v42H890.4z"/>
								<text transform="matrix(1 0 0 1 919.8683 348)" class="st5 st6 st7">1</text>
							</g>
						</g>
					</g>
				</g>
			</g>
		</g>
		<path class="st10" d="M-48-23"/>
		<path class="st10" d="M-48-23"/>
		<g>
			<g>
				<text transform="matrix(1 0 0 1 26.2783 516)" class="st5 st6 st7">0</text>
			</g>
			<g>
				<text transform="matrix(1 0 0 1 182.6783 516)" class="st5 st6 st7">1</text>
			</g>
			<g>
				<text transform="matrix(1 0 0 1 339.0783 516)" class="st5 st6 st7">2</text>
			</g>
			<g>
				<text transform="matrix(1 0 0 1 495.4783 516)" class="st5 st6 st7">3</text>
			</g>
			<g>
				<text transform="matrix(1 0 0 1 651.8783 516)" class="st5 st6 st7">4</text>
			</g>
			<g>
				<text transform="matrix(1 0 0 1 808.2783 516)" class="st5 st6 st7">5</text>
			</g>
			<g>
				<text transform="matrix(1 0 0 1 964.6783 516)" class="st5 st6 st7">6</text>
			</g>
			<g>
				<text transform="matrix(1 0 0 1 1121.0784 516)" class="st5 st6 st7">7</text>
			</g>
			<g>
				<text transform="matrix(1 0 0 1 1277.4783 516)" class="st5 st6 st7">8</text>
			</g>
			<g>
				<text transform="matrix(1 0 0 1 1433.8783 516)" class="st5 st6 st7">9</text>
			</g>
			<g>
				<text transform="matrix(1 0 0 1 1584.5566 516)" class="st5 st6 st7">10</text>
			</g>
		</g>
		<g>
			<g>
				<text transform="matrix(1 0 0 1 19.5566 503.3)" class="st5 st6 st7">0</text>
			</g>
			<g>
				<text transform="matrix(1 0 0 1 19.5566 419.3)" class="st5 st6 st7">2</text>
			</g>
			<g>
				<text transform="matrix(1 0 0 1 19.5566 335.3)" class="st5 st6 st7">4</text>
			</g>
			<g>
				<text transform="matrix(1 0 0 1 19.5566 251.3)" class="st5 st6 st7">6</text>
			</g>
			<g>
				<text transform="matrix(1 0 0 1 19.5566 167.3)" class="st5 st6 st7">8</text>
			</g>
			<g>
				<text transform="matrix(1 0 0 1 8.1133 83.3)" class="st5 st6 st7">10</text>
			</g>
		</g>
	</g>
</g>
<g>
	<g transform="translate(1675.28,100)" pointer-events="all">
		<rect x="-1622" y="-4.7" shape-rendering="crispEdges" class="st11" width="113" height="63"/>
		<g>
			<defs>
				<rect id="SVGID_00000109012400140490439510000000627182972310799501_" x="-1622" y="-4.7" width="113" height="63"/>
			</defs>
			<clipPath id="SVGID_00000028292991358260169040000007149104965612156309_">
				<use xlink:href="#SVGID_00000109012400140490439510000000627182972310799501_"  style="overflow:visible;"/>
			</clipPath>
			<g transform="" style="clip-path:url(#SVGID_00000028292991358260169040000007149104965612156309_);">
				<g>
					<g transform="translate(0,18.200000000000003)">
						<text transform="matrix(1 0 0 1 -1582 2.2845)" class="st5 st6 st7">Run #1</text>
						<g>
							<g>
								<g>
									<path class="st4" d="M-1596,1.3h-12v-12h12V1.3z"/>
								</g>
							</g>
						</g>
						<rect x="-1622" y="-17.9" class="st13" width="107.8" height="26.4"/>
					</g>
					<g transform="translate(0,44.6)">
						<text transform="matrix(1 0 0 1 -1582 2.2845)" class="st5 st6 st7">Run #2</text>
						<g>
							<g>
								<g>
									<path class="st9" d="M-1596,1.3h-12v-12h12V1.3z"/>
								</g>
							</g>
						</g>
						<rect x="-1622" y="-17.9" class="st13" width="107.8" height="26.4"/>
					</g>
				</g>
			</g>
		</g>
		<polygon class="st14" points="-1622,-4.7 -1622,-4.7 -1622,-4.7 -1622,-4.7 -1622,-4.7 -1622,-4.7 -1622,-4.7 -1622,-4.7 		"/>
	</g>
	<g>
		<text transform="matrix(1 0 0 1 42 27)" class="st5 st6 st15">How likely would you be to recommend this workshop to a colleague?</text>
	</g>
	<g>
		<g transform="rotate(0,862,571)">
			<g transform="translate(683,559)">
				<rect x="-47.5" y="-22.5" class="st16" width="358" height="23"/>
				<text transform="matrix(1 0 0 1 -45.832 -5)" class="st5 st6 st17">0 = not likely at all ... 10 = extremely likely</text>
			</g>
		</g>
	</g>
	<g>
		<g transform="rotate(0,862,91)">
			<g transform="translate(663,79)">
				<rect x="-47.5" y="-22.5" class="st16" width="398" height="23"/>
				<text transform="matrix(1 0 0 1 -46 -5)" class="st5 st6 st17">deduplicated, not including instructors or helpers</text>
			</g>
		</g>
	</g>
</g>
</svg>
