<?xml version="1.0" encoding="utf-8"?>
<!-- Generator: Adobe Illustrator 27.5.0, SVG Export Plug-In . SVG Version: 6.00 Build 0)  -->
<svg version="1.1" id="Layer_1" xmlns="http://www.w3.org/2000/svg" xmlns:xlink="http://www.w3.org/1999/xlink" x="0px" y="0px"
	 viewBox="0 0 1038 420" style="enable-background:new 0 0 1038 420;" xml:space="preserve">
<style type="text/css">
	.st0{fill:#00467F;}
	.st1{fill:#FFFFFF;}
	.st2{font-family:'Verdana';}
	.st3{font-size:18px;}
	.st4{fill:#009AC7;}
	.st5{fill:#8D9091;}
	.st6{fill:#444444;}
	.st7{fill:#2A3F5F;}
	.st8{clip-path:url(#SVGID_00000099621881441208313590000014986771332612922002_);}
	.st9{fill-opacity:0;}
	.st10{fill:#808BA4;}
</style>
<g>
	<g>
		<g>
			<path class="st0" d="M126,210c0,46.4,37.6,84,84,84s84-37.6,84-84s-37.6-84-84-84V0c116,0,210,94,210,210s-94,210-210,210
				S0,326,0,210H126z"/>
			<g>
				<text transform="matrix(1 0 0 1 292.8158 320.9447)" class="st1 st2 st3">75%</text>
			</g>
		</g>
		<g>
			<path class="st4" d="M210,126c-34,0-64.6,20.5-77.6,51.9L16,129.6C48.5,51.2,125.1,0,210,0L210,126z"/>
			<g>
				<text transform="matrix(1 0 0 1 98.2067 94.774)" class="st1 st2 st3">18.8%</text>
			</g>
		</g>
		<g>
			<path class="st5" d="M132.4,177.9C128.2,188,126,199,126,210H0c0-27.6,5.4-54.9,16-80.4L132.4,177.9z"/>
			<g>
				<text transform="matrix(1 0 0 1 7.533 182.7189)" class="st6 st2 st3">6.25%</text>
			</g>
		</g>
		<g>
			<text transform="matrix(1 0 0 1 176.1885 205.2969)" class="st7 st2 st3">Run#1 </text>
			<text transform="matrix(1 0 0 1 190.3828 228.6969)" class="st7 st2 st3">[16]</text>
		</g>
	</g>
	<g>
		<g>
			<path class="st0" d="M607.3,195.4c-8.1,45.7,22.5,89.3,68.1,97.3c45.7,8.1,89.3-22.5,97.3-68.1c8.1-45.7-22.5-89.3-68.1-97.3
				c-4.8-0.8-9.7-1.3-14.6-1.3V0c116,0,210,94,210,210c0,116-94,210-210,210c-116,0-210-94-210-210c0-12.2,1.1-24.4,3.2-36.5
				L607.3,195.4z"/>
			<g>
				<text transform="matrix(1 0 0 1 754.4153 329.6085)" class="st1 st2 st3">77.8%</text>
			</g>
		</g>
		<g>
			<path class="st4" d="M690.1,126c-19.7,0-38.9,7-54,19.7l-81-96.5C592.9,17.4,640.7,0,690.1,0V126z"/>
			<g>
				<text transform="matrix(1 0 0 1 606.406 69.9564)" class="st1 st2 st3">11.1%</text>
			</g>
		</g>
		<g>
			<path class="st5" d="M636.1,145.7c-15.1,12.7-25.3,30.3-28.7,49.8l-124.1-21.9c8.6-48.6,34-92.7,71.8-124.4L636.1,145.7z"/>
			<g>
				<text transform="matrix(1 0 0 1 524.4094 138.7598)" class="st6 st2 st3">11.1%</text>
			</g>
		</g>
		<g>
			<text transform="matrix(1 0 0 1 656.2385 205.2969)" class="st7 st2 st3">Run#2 </text>
			<text transform="matrix(1 0 0 1 670.4329 228.6969)" class="st7 st2 st3">[18]</text>
		</g>
	</g>
</g>
<g>
	<g transform="translate(1662.02,100)" pointer-events="all">
		<rect x="-750" y="-92.1" shape-rendering="crispEdges" class="st1" width="126" height="90"/>
		<g>
			<defs>
				<rect id="SVGID_1_" x="-750" y="-92.1" width="126" height="90"/>
			</defs>
			<clipPath id="SVGID_00000031898676273141763040000015573643178793935779_">
				<use xlink:href="#SVGID_1_"  style="overflow:visible;"/>
			</clipPath>
			<g transform="" style="clip-path:url(#SVGID_00000031898676273141763040000015573643178793935779_);">
				<g>
					<g transform="translate(0,18.200000000000003)">
						<text transform="matrix(1 0 0 1 -709.975 -85.0905)" class="st7 st2 st3">Windows</text>
						<g>
							<g>
								<g>
									<path class="st0" d="M-724-86.1h-12v-12h12V-86.1z"/>
								</g>
							</g>
						</g>
						<rect x="-750" y="-105.3" class="st9" width="120.4" height="26.4"/>
					</g>
					<g transform="translate(0,44.6)">
						<text transform="matrix(1 0 0 1 -709.975 -85.0905)" class="st7 st2 st3">macOS</text>
						<g>
							<g>
								<g>
									<path class="st4" d="M-724-86.1h-12v-12h12V-86.1z"/>
								</g>
							</g>
						</g>
						<rect x="-750" y="-105.3" class="st9" width="120.4" height="26.4"/>
					</g>
					<g transform="translate(0,71)">
						<text transform="matrix(1 0 0 1 -709.975 -85.0905)" class="st7 st2 st3">Linux</text>
						<g>
							<g>
								<g>
									<path class="st5" d="M-724-86.1h-12v-12h12V-86.1z"/>
								</g>
							</g>
						</g>
						<rect x="-750" y="-105.3" class="st9" width="120.4" height="26.4"/>
					</g>
				</g>
			</g>
		</g>
		<polygon class="st10" points="-750,-92.1 -750,-92.1 -750,-92.1 -750,-92.1 -750,-92.1 -750,-92.1 -750,-92.1 -750,-92.1 		"/>
	</g>
</g>
</svg>
