<svg class="main-svg" xmlns="http://www.w3.org/2000/svg" xmlns:xlink="http://www.w3.org/1999/xlink" width="1800" height="600" style="" viewBox="0 0 1800 600"><rect x="0" y="0" width="1800" height="600" style="fill: rgb(255, 255, 255); fill-opacity: 1;"/><defs id="defs-534de2"><g class="clips"/><g class="gradients"/><g class="patterns"/></defs><g class="bglayer"/><g class="layer-below"><g class="imagelayer"/><g class="shapelayer"/></g><g class="cartesianlayer"/><g class="polarlayer"/><g class="smithlayer"/><g class="ternarylayer"/><g class="geolayer"/><g class="funnelarealayer"/><g class="pielayer"><g class="trace" stroke-linejoin="round" style="opacity: 1;"><g class="slice"><path class="surface" d="M344.975,310a84,84 0 1 0 84,-84.00000000000001l0,-126a210,210 0 1 1 -210,210.00000000000003Z" style="pointer-events: none; fill: rgb(0, 70, 127); fill-opacity: 1; stroke-width: 0; stroke: rgb(68, 68, 68); stroke-opacity: 1;"/><g class="slicetext"><text data-notex="1" class="slicetext" transform="translate(532.9196968344226,420.9446968344225)" text-anchor="middle" x="0" y="0" style="font-family: Verdana; font-size: 18px; fill: rgb(255, 255, 255); fill-opacity: 1; white-space: pre;">75%</text></g></g><g class="slice"><path class="surface" d="M428.975,226a84,84 0 0 0 -77.60588073094809,51.85459168133246l-116.40882109642212,-48.218112478001316a210,210 0 0 1 194.0147018273702,-129.63647920333113Z" style="pointer-events: none; fill: rgb(0, 154, 199); fill-opacity: 1; stroke-width: 0; stroke: rgb(68, 68, 68); stroke-opacity: 1;"/><g class="slicetext"><text data-notex="1" class="slicetext" transform="translate(347.3061757461185,194.77396699152587)" text-anchor="middle" x="0" y="0" style="font-family: Verdana; font-size: 18px; fill: rgb(255, 255, 255); fill-opacity: 1; white-space: pre;">18.8%</text></g></g><g class="slice"><path class="surface" d="M351.3691192690519,277.85459168133247a84,84 0 0 0 -6.394119269051919,32.14540831866754l-126,-7.715274834628324e-15a210,210 0 0 1 15.985298172629797,-80.36352079666885Z" style="pointer-events: none; fill: rgb(141, 144, 145); fill-opacity: 1; stroke-width: 0; stroke: rgb(68, 68, 68); stroke-opacity: 1;"/><g class="slicetext"><text data-notex="1" class="slicetext" transform="translate(256.6324539259814,282.71893616017917)" text-anchor="middle" x="0" y="0" style="font-family: Verdana; font-size: 18px; fill: rgb(68, 68, 68); fill-opacity: 1; white-space: pre;">6.25%</text></g></g><g class="titletext"><text data-notex="1" class="titletext" transform="translate(428.975,310)translate(0,-4.703125)" text-anchor="middle" x="0" y="0" style="font-family: Verdana; font-size: 18px; fill: rgb(42, 63, 95); fill-opacity: 1; white-space: pre;"><tspan class="line" dy="0em" x="0" y="0">Run#1 </tspan><tspan class="line" dy="1.3em" x="0" y="0"> [16]</tspan></text></g></g><g class="trace" stroke-linejoin="round" style="opacity: 1;"><g class="slice"><path class="surface" d="M1199.3011487469746,295.41355307597786a84,84 0 1 0 82.72385125302549,-69.41355307597789l0,-126a210,210 0 1 1 -206.80962813256372,173.5338826899447Z" style="pointer-events: none; fill: rgb(0, 70, 127); fill-opacity: 1; stroke-width: 0; stroke: rgb(68, 68, 68); stroke-opacity: 1;"/><g class="slicetext"><text data-notex="1" class="slicetext" transform="translate(1376.5147786239213,429.60853313848975)" text-anchor="middle" x="0" y="0" style="font-family: Verdana; font-size: 18px; fill: rgb(255, 255, 255); fill-opacity: 1; white-space: pre;">77.8%</text></g></g><g class="slice"><path class="surface" d="M1282.025,226a84,84 0 0 0 -53.9941592136693,19.652266778005846l-80.99123882050394,-96.52159983299123a210,210 0 0 1 134.98539803417324,-49.13066694501461Z" style="pointer-events: none; fill: rgb(0, 154, 199); fill-opacity: 1; stroke-width: 0; stroke: rgb(68, 68, 68); stroke-opacity: 1;"/><g class="slicetext"><text data-notex="1" class="slicetext" transform="translate(1228.5055126393988,169.95641697596096)" text-anchor="middle" x="0" y="0" style="font-family: Verdana; font-size: 18px; fill: rgb(255, 255, 255); fill-opacity: 1; white-space: pre;">11.1%</text></g></g><g class="slice"><path class="surface" d="M1228.0308407863308,245.65226677800584a84,84 0 0 0 -28.72969203935618,49.761286297972006l-124.0857768795382,-21.879670386033233a210,210 0 0 1 71.82423009839044,-124.40321574493001Z" style="pointer-events: none; fill: rgb(141, 144, 145); fill-opacity: 1; stroke-width: 0; stroke: rgb(68, 68, 68); stroke-opacity: 1;"/><g class="slicetext"><text data-notex="1" class="slicetext" transform="translate(1146.508900857069,238.75974368030063)" text-anchor="middle" x="0" y="0" style="font-family: Verdana; font-size: 18px; fill: rgb(68, 68, 68); fill-opacity: 1; white-space: pre;">11.1%</text></g></g><g class="titletext"><text data-notex="1" class="titletext" transform="translate(1282.025,310)translate(0,-4.703125)" text-anchor="middle" x="0" y="0" style="font-family: Verdana; font-size: 18px; fill: rgb(42, 63, 95); fill-opacity: 1; white-space: pre;"><tspan class="line" dy="0em" x="0" y="0">Run#2 </tspan><tspan class="line" dy="1.3em" x="0" y="0"> [18]</tspan></text></g></g></g><g class="iciclelayer"/><g class="treemaplayer"/><g class="sunburstlayer"/><g class="glimages"/><defs id="topdefs-534de2"><g class="clips"/><clipPath id="legend534de2"><rect width="126" height="90" x="0" y="0"/></clipPath></defs><g class="layer-above"><g class="imagelayer"/><g class="shapelayer"/></g><g class="infolayer"><g class="legend" pointer-events="all" transform="translate(1662.02,100)"><rect class="bg" shape-rendering="crispEdges" width="126" height="90" x="0" y="0" style="stroke: rgb(68, 68, 68); stroke-opacity: 1; fill: rgb(255, 255, 255); fill-opacity: 1; stroke-width: 0px;"/><g class="scrollbox" transform="" clip-path="url(#legend534de2)"><g class="groups"><g class="traces" transform="translate(0,18.200000000000003)" style="opacity: 1;"><text class="legendtext" text-anchor="start" x="40" y="7.0200000000000005" style="font-family: Verdana; font-size: 18px; fill: rgb(42, 63, 95); fill-opacity: 1; white-space: pre;">Windows</text><g class="layers" style="opacity: 1;"><g class="legendfill"/><g class="legendlines"/><g class="legendsymbols"><g class="legendpoints"><path class="legendpie" d="M6,6H-6V-6H6Z" transform="translate(20,0)" style="fill: rgb(0, 70, 127); fill-opacity: 1; stroke-width: 0; stroke: rgb(68, 68, 68); stroke-opacity: 1;"/></g></g></g><rect class="legendtoggle" x="0" y="-13.200000000000001" width="120.390625" height="26.400000000000002" style="fill: rgb(0, 0, 0); fill-opacity: 0;"/></g><g class="traces" transform="translate(0,44.6)" style="opacity: 1;"><text class="legendtext" text-anchor="start" x="40" y="7.0200000000000005" style="font-family: Verdana; font-size: 18px; fill: rgb(42, 63, 95); fill-opacity: 1; white-space: pre;">macOS</text><g class="layers" style="opacity: 1;"><g class="legendfill"/><g class="legendlines"/><g class="legendsymbols"><g class="legendpoints"><path class="legendpie" d="M6,6H-6V-6H6Z" transform="translate(20,0)" style="fill: rgb(0, 154, 199); fill-opacity: 1; stroke-width: 0; stroke: rgb(68, 68, 68); stroke-opacity: 1;"/></g></g></g><rect class="legendtoggle" x="0" y="-13.200000000000001" width="120.390625" height="26.400000000000002" style="fill: rgb(0, 0, 0); fill-opacity: 0;"/></g><g class="traces" transform="translate(0,71)" style="opacity: 1;"><text class="legendtext" text-anchor="start" x="40" y="7.0200000000000005" style="font-family: Verdana; font-size: 18px; fill: rgb(42, 63, 95); fill-opacity: 1; white-space: pre;">Linux</text><g class="layers" style="opacity: 1;"><g class="legendfill"/><g class="legendlines"/><g class="legendsymbols"><g class="legendpoints"><path class="legendpie" d="M6,6H-6V-6H6Z" transform="translate(20,0)" style="fill: rgb(141, 144, 145); fill-opacity: 1; stroke-width: 0; stroke: rgb(68, 68, 68); stroke-opacity: 1;"/></g></g></g><rect class="legendtoggle" x="0" y="-13.200000000000001" width="120.390625" height="26.400000000000002" style="fill: rgb(0, 0, 0); fill-opacity: 0;"/></g></g></g><rect class="scrollbar" rx="20" ry="3" width="0" height="0" x="0" y="0" style="fill: rgb(128, 139, 164); fill-opacity: 1;"/></g><g class="g-gtitle"/></g></svg>