<?xml version="1.0" encoding="utf-8"?>
<!-- Generator: Adobe Illustrator 27.5.0, SVG Export Plug-In . SVG Version: 6.00 Build 0)  -->
<svg version="1.1" id="Layer_1" xmlns="http://www.w3.org/2000/svg" xmlns:xlink="http://www.w3.org/1999/xlink" x="0px" y="0px"
	 viewBox="0 0 1313.8 447.5" style="enable-background:new 0 0 1313.8 447.5;" xml:space="preserve">
<style type="text/css">
	.st0{fill:#BA4482;}
	.st1{fill:#FFFFFF;}
	.st2{font-family:'Verdana';}
	.st3{font-size:18px;}
	.st4{fill:#4F2D7F;}
	.st5{fill:#D2492A;}
	.st6{fill:#444444;}
	.st7{fill:#7D0063;}
	.st8{fill:#0039A6;}
	.st9{fill:#0039A6;}
	.st10{fill:#55A51C;}
	.st11{fill:#55A51C;}
	.st12{fill:#00877C;}
	.st13{font-size:19.1803px;}
	.st14{fill:#0039A6;}
	.st15{fill:#00877C;}
	.st16{clip-path:url(#SVGID_00000005985435819368738360000000403801189930736554_);}
	.st17{fill-opacity:0;}
	.st18{fill:#808BA4;}
</style>
<g>
	<g>
		<g>
			<path class="st0" d="M269.4,278.4c32.8-32.8,32.8-86,0-118.8C253.6,143.9,232.3,135,210,135V9c116,0,210,94,210,210
				c0,55.7-22.1,109.1-61.5,148.5L269.4,278.4z"/>
			<g>
				<text transform="matrix(1 0 0 1 315.6858 169.7579)" class="st1 st2 st3">37.5%</text>
			</g>
		</g>
		<g>
			<path class="st4" d="M210,135c-46.4,0-84,37.6-84,84l0,0H0C0,103,94,9,210,9V135z"/>
			<g>
				<text transform="matrix(1 0 0 1 84.9264 122.0676)" class="st1 st2 st3">25%</text>
			</g>
		</g>
		<g>
			<path class="st5" d="M126,219c0,11,2.2,22,6.4,32.1L16,299.4C5.4,273.9,0,246.6,0,219H126z"/>
			<g>
				<text transform="matrix(1 0 0 1 7.533 260.2934)" class="st6 st2 st3">6.25%</text>
			</g>
		</g>
		<g>
			<path class="st7" d="M132.4,251.2c4.2,10.2,10.4,19.5,18.2,27.3l-89.1,89.1C42,348,26.5,324.9,16,299.4L132.4,251.2z"/>
			<g>
				<text transform="matrix(1 0 0 1 33.7705 323.6365)" class="st1 st2 st3">6.25%</text>
			</g>
		</g>
		<g>
			<path class="st8" d="M150.6,278.4c7.8,7.8,17.1,14,27.3,18.2L129.6,413c-25.5-10.6-48.6-26-68.1-45.5L150.6,278.4z"/>
			<g>
				<text transform="matrix(1 0 0 1 82.2512 372.1173)" class="st1 st2 st3">6.25%</text>
			</g>
		</g>
		<g>
			<path class="st9" d="M177.9,296.6C188,300.8,199,303,210,303v126c-27.6,0-54.9-5.4-80.4-16L177.9,296.6z"/>
			<g>
				<text transform="matrix(1 0 0 1 145.5944 398.3549)" class="st1 st2 st3">6.25%</text>
			</g>
		</g>
		<g>
			<path class="st10" d="M210,303c11,0,22-2.2,32.1-6.4L290.4,413c-25.5,10.6-52.8,16-80.4,16V303z"/>
			<g>
				<text transform="matrix(1 0 0 1 214.1565 398.3549)" class="st1 st2 st3">6.25%</text>
			</g>
		</g>
		<g>
			<path class="st11" d="M242.1,296.6c10.2-4.2,19.5-10.4,27.3-18.2l89.1,89.1c-19.5,19.5-42.7,35-68.1,45.5L242.1,296.6z"/>
			<g>
				<text transform="matrix(1 0 0 1 277.4997 372.1173)" class="st1 st2 st3">6.25%</text>
			</g>
		</g>
		<g>
			<text transform="matrix(1 0 0 1 176.1885 214.3092)" class="st12 st2 st3">Run#1 </text>
			<text transform="matrix(1 0 0 1 190.3828 237.7092)" class="st12 st2 st3">[16]</text>
		</g>
	</g>
	<g>
		<g>
			<path class="st4" d="M716.7,307.9c46.5-16.9,70.4-68.3,53.5-114.7c-12.9-35.4-46.5-58.9-84.1-58.9V0
				c123.6,0,223.8,100.2,223.8,223.8c0,94.1-58.8,178.1-147.2,210.3L716.7,307.9z"/>
			<g>
				<text transform="matrix(1 0 0 1 808.2092 204.0294)" class="st1 st2 st13">44.4%</text>
			</g>
		</g>
		<g>
			<path class="st14" d="M686,134.3c-43.4,0-80.6,31.2-88.1,74l-132.2-23.3C484.5,78,577.5,0,686,0V134.3z"/>
			<g>
				<text transform="matrix(1 0 0 1 553.2639 111.2369)" class="st1 st2 st13">22.2%</text>
			</g>
		</g>
		<g>
			<path class="st0" d="M597.9,208.2c-5.6,31.5,6.1,63.6,30.6,84.1l-86.3,102.9c-61.2-51.4-90.4-131.5-76.5-210.3L597.9,208.2z"/>
			<g>
				<text transform="matrix(1 0 0 1 506.7571 284.8038)" class="st1 st2 st13">16.7%</text>
			</g>
		</g>
		<g>
			<path class="st9" d="M628.5,292.3c8,6.7,17.1,12,26.9,15.5L609.5,434c-24.5-8.9-47.3-22.1-67.3-38.9L628.5,292.3z"/>
			<g>
				<text transform="matrix(0.5 -0.866 0.866 0.5 592.3952 400.9029)" class="st1 st2 st13">5.56%</text>
			</g>
		</g>
		<g>
			<path class="st10" d="M655.4,307.9c9.8,3.6,20.2,5.4,30.6,5.4v134.3c-26.1,0-52-4.6-76.5-13.5L655.4,307.9z"/>
			<g>
				<text transform="matrix(0.1736 -0.9848 0.9848 0.1736 658.626 422.2517)" class="st1 st2 st13">5.56%</text>
			</g>
		</g>
		<g>
			<path class="st15" d="M686,313.3c10.4,0,20.8-1.8,30.6-5.4L762.6,434c-24.5,8.9-50.4,13.5-76.5,13.5V313.3z"/>
			<g>
				<text transform="matrix(0.1736 0.9848 -0.9848 0.1736 702.3253 359.0281)" class="st1 st2 st13">5.56%</text>
			</g>
		</g>
		<g>
			<text transform="matrix(1 0 0 1 650.0208 218.7589)" class="st12 st2 st13">Run#2 </text>
			<text transform="matrix(1 0 0 1 665.1458 243.6935)" class="st12 st2 st13">[18]</text>
		</g>
	</g>
</g>
<g>
	<g transform="translate(1413.14,100)" pointer-events="all">
		<polygon shape-rendering="crispEdges" class="st1" points="-503.3,-91 -99.3,-77.3 -99.3,196.7 -503.3,183 		"/>
		<g>
			<defs>
				<polygon id="SVGID_1_" points="-503.3,-91 -99.3,-77.3 -99.3,196.7 -503.3,183 				"/>
			</defs>
			<clipPath id="SVGID_00000120539812802576434280000013193759405094630062_">
				<use xlink:href="#SVGID_1_"  style="overflow:visible;"/>
			</clipPath>
			<g transform="" style="clip-path:url(#SVGID_00000120539812802576434280000013193759405094630062_);">
				<g>
					<g transform="translate(0,18.200000000000003)">
						<text transform="matrix(1 0 0 1 -463.3201 -83.9677)" class="st12 st2 st3">Biomedical and clinical sciences</text>
						<g>
							<g>
								<g>
									<path class="st0" d="M-477.3-85h-12v-12h12V-85z"/>
								</g>
							</g>
						</g>
						<rect x="-503.3" y="-104.2" class="st17" width="369.3" height="26.4"/>
					</g>
					<g transform="translate(0,44.6)">
						<text transform="matrix(1 0 0 1 -463.3201 -83.9677)" class="st12 st2 st3">Engineering</text>
						<g>
							<g>
								<g>
									<path class="st4" d="M-477.3-85h-12v-12h12V-85z"/>
								</g>
							</g>
						</g>
						<rect x="-503.3" y="-104.2" class="st17" width="369.3" height="26.4"/>
					</g>
					<g transform="translate(0,71)">
						<text transform="matrix(1 0 0 1 -463.3201 -83.9676)" class="st12 st2 st3">Built environment and design</text>
						<g>
							<g>
								<g>
									<path class="st5" d="M-477.3-85h-12v-12h12V-85z"/>
								</g>
							</g>
						</g>
						<rect x="-503.3" y="-104.2" class="st17" width="369.3" height="26.4"/>
					</g>
					<g transform="translate(0,97.4)">
						<text transform="matrix(1 0 0 1 -463.3201 -83.9677)" class="st12 st2 st3">Economics</text>
						<g>
							<g>
								<g>
									<path class="st7" d="M-477.3-85h-12v-12h12V-85z"/>
								</g>
							</g>
						</g>
						<rect x="-503.3" y="-104.2" class="st17" width="369.3" height="26.4"/>
					</g>
					<g transform="translate(0,123.80000000000001)">
						<text transform="matrix(1 0 0 1 -463.3201 -83.9677)" class="st12 st2 st3">Chemical sciences</text>
						<g>
							<g>
								<g>
									<path class="st8" d="M-477.3-85h-12v-12h12V-85z"/>
								</g>
							</g>
						</g>
						<rect x="-503.3" y="-104.2" class="st17" width="369.3" height="26.4"/>
					</g>
					<g transform="translate(0,150.2)">
						<text transform="matrix(1 0 0 1 -463.3201 -83.9677)" class="st12 st2 st3">Mathematical sciences</text>
						<g>
							<g>
								<g>
									<path class="st9" d="M-477.3-85h-12v-12h12V-85z"/>
								</g>
							</g>
						</g>
						<rect x="-503.3" y="-104.2" class="st17" width="369.3" height="26.4"/>
					</g>
					<g transform="translate(0,176.6)">
						<text transform="matrix(1 0 0 1 -463.3201 -83.9677)" class="st12 st2 st3">Biological sciences</text>
						<g>
							<g>
								<g>
									<path class="st10" d="M-477.3-85h-12v-12h12V-85z"/>
								</g>
							</g>
						</g>
						<rect x="-503.3" y="-104.2" class="st17" width="369.3" height="26.4"/>
					</g>
					<g transform="translate(0,203)">
						<text transform="matrix(1 0 0 1 -463.3201 -83.9676)" class="st12 st2 st3">Education</text>
						<g>
							<g>
								<g>
									<path class="st11" d="M-477.3-85h-12v-12h12V-85z"/>
								</g>
							</g>
						</g>
						<rect x="-503.3" y="-104.2" class="st17" width="369.3" height="26.4"/>
					</g>
					<g transform="translate(0,229.4)">
						<text transform="matrix(1 0 0 1 -463.3201 -83.9677)" class="st12 st2 st3">Health sciences</text>
						<g>
							<g>
								<g>
									<path class="st14" d="M-477.3-85h-12v-12h12V-85z"/>
								</g>
							</g>
						</g>
						<rect x="-503.3" y="-104.2" class="st17" width="369.3" height="26.4"/>
					</g>
					<g transform="translate(0,255.8)">
						<text transform="matrix(1 0 0 1 -463.3201 -83.9677)" class="st12 st2 st3">Information and computing sciences</text>
						<g>
							<g>
								<g>
									<path class="st15" d="M-477.3-85h-12v-12h12V-85z"/>
								</g>
							</g>
						</g>
						<rect x="-503.3" y="-104.2" class="st17" width="369.3" height="26.4"/>
					</g>
				</g>
			</g>
		</g>
		<polygon class="st18" points="-503.3,-91 -503.3,-91 -503.3,-91 -503.3,-91 -503.3,-91 -503.3,-91 -503.3,-91 -503.3,-91 		"/>
	</g>
</g>
</svg>
