<svg class="main-svg" xmlns="http://www.w3.org/2000/svg" xmlns:xlink="http://www.w3.org/1999/xlink" width="1800" height="600" style="" viewBox="0 0 1800 600"><rect x="0" y="0" width="1800" height="600" style="fill: rgb(255, 255, 255); fill-opacity: 1;"/><defs id="defs-85d111"><g class="clips"/><g class="gradients"/><g class="patterns"/></defs><g class="bglayer"/><g class="layer-below"><g class="imagelayer"/><g class="shapelayer"/></g><g class="cartesianlayer"/><g class="polarlayer"/><g class="smithlayer"/><g class="ternarylayer"/><g class="geolayer"/><g class="funnelarealayer"/><g class="pielayer"><g class="trace" stroke-linejoin="round" style="opacity: 1;"><g class="slice"><path class="surface" d="M429.8414140641144,369.39696961967a84,84 0 0 0 -59.396969619669996,-143.39696961967l0,-126a210,210 0 0 1 148.49242404917499,358.49242404917493Z" style="pointer-events: none; fill: rgb(0, 70, 127); fill-opacity: 1; stroke-width: 0; stroke: rgb(68, 68, 68); stroke-opacity: 1;"/><g class="slicetext"><text data-notex="1" class="slicetext" transform="translate(506.2547357236035,260.7455354423318)" text-anchor="middle" x="0" y="0" style="font-family: Verdana; font-size: 18px; fill: rgb(255, 255, 255); fill-opacity: 1; white-space: pre;">37.5%</text></g></g><g class="slice"><path class="surface" d="M370.4444444444444,226a84,84 0 0 0 -84,84l-126,-7.715274834628324e-15a210,210 0 0 1 210,-210Z" style="pointer-events: none; fill: rgb(0, 154, 199); fill-opacity: 1; stroke-width: 0; stroke: rgb(68, 68, 68); stroke-opacity: 1;"/><g class="slicetext"><text data-notex="1" class="slicetext" transform="translate(266.4997476100219,213.05530316557753)" text-anchor="middle" x="0" y="0" style="font-family: Verdana; font-size: 18px; fill: rgb(255, 255, 255); fill-opacity: 1; white-space: pre;">25%</text></g></g><g class="slice"><path class="surface" d="M286.4444444444444,310a84,84 0 0 0 6.394119269051919,32.14540831866754l-116.40882109642212,48.2181124780013a210,210 0 0 1 -15.985298172629797,-80.36352079666885Z" style="pointer-events: none; fill: rgb(141, 144, 145); fill-opacity: 1; stroke-width: 0; stroke: rgb(68, 68, 68); stroke-opacity: 1;"/><g class="slicetext"><text data-notex="1" class="slicetext" transform="translate(198.10189837042574,351.28106383982083)" text-anchor="middle" x="0" y="0" style="font-family: Verdana; font-size: 18px; fill: rgb(68, 68, 68); fill-opacity: 1; white-space: pre;">6.25%</text></g></g><g class="slice"><path class="surface" d="M292.83856371349634,342.14540831866753a84,84 0 0 0 18.208911111278088,27.25156130100245l-89.09545442950498,89.09545442950497a210,210 0 0 1 -45.52227777819522,-68.12890325250612Z" style="pointer-events: none; fill: rgb(167, 25, 48); fill-opacity: 1; stroke-width: 0; stroke: rgb(68, 68, 68); stroke-opacity: 1;"/><g class="slicetext"><text data-notex="1" class="slicetext" transform="translate(224.3394887211245,414.6242103084673)" text-anchor="middle" x="0" y="0" style="font-family: Verdana; font-size: 18px; fill: rgb(255, 255, 255); fill-opacity: 1; white-space: pre;">6.25%</text></g></g><g class="slice"><path class="surface" d="M311.0474748247744,369.39696961967a84,84 0 0 0 27.251561301002482,18.20891111127811l-48.21811247800127,116.40882109642213a210,210 0 0 1 -68.1289032525062,-45.522277778195274Z" style="pointer-events: none; fill: rgb(125, 0, 99); fill-opacity: 1; stroke-width: 0; stroke: rgb(68, 68, 68); stroke-opacity: 1;"/><g class="slicetext"><text data-notex="1" class="slicetext" transform="translate(272.82023413597705,463.1049557233199)" text-anchor="middle" x="0" y="0" style="font-family: Verdana; font-size: 18px; fill: rgb(255, 255, 255); fill-opacity: 1; white-space: pre;">6.25%</text></g></g><g class="slice"><path class="surface" d="M338.29903612577687,387.6058807309481a84,84 0 0 0 32.14540831866758,6.394119269051908l9.647993121295911e-14,126a210,210 0 0 1 -80.36352079666894,-15.985298172629768Z" style="pointer-events: none; fill: rgb(210, 73, 42); fill-opacity: 1; stroke-width: 0; stroke: rgb(68, 68, 68); stroke-opacity: 1;"/><g class="slicetext"><text data-notex="1" class="slicetext" transform="translate(336.1633806046236,489.3425460740187)" text-anchor="middle" x="0" y="0" style="font-family: Verdana; font-size: 18px; fill: rgb(255, 255, 255); fill-opacity: 1; white-space: pre;">6.25%</text></g></g><g class="slice"><path class="surface" d="M370.44444444444446,394a84,84 0 0 0 32.14540831866758,-6.394119269051953l48.21811247800145,116.40882109642206a210,210 0 0 1 -80.36352079666894,15.985298172629882Z" style="pointer-events: none; fill: rgb(85, 165, 28); fill-opacity: 1; stroke-width: 0; stroke: rgb(68, 68, 68); stroke-opacity: 1;"/><g class="slicetext"><text data-notex="1" class="slicetext" transform="translate(404.7255082842654,489.3425460740186)" text-anchor="middle" x="0" y="0" style="font-family: Verdana; font-size: 18px; fill: rgb(255, 255, 255); fill-opacity: 1; white-space: pre;">6.25%</text></g></g><g class="slice"><path class="surface" d="M402.58985276311205,387.60588073094806a84,84 0 0 0 27.25156130100245,-18.208911111278155l89.09545442950512,89.09545442950484a210,210 0 0 1 -68.12890325250612,45.52227777819539Z" style="pointer-events: none; fill: rgb(79, 45, 127); fill-opacity: 1; stroke-width: 0; stroke: rgb(68, 68, 68); stroke-opacity: 1;"/><g class="slicetext"><text data-notex="1" class="slicetext" transform="translate(468.0686547529119,463.10495572331973)" text-anchor="middle" x="0" y="0" style="font-family: Verdana; font-size: 18px; fill: rgb(255, 255, 255); fill-opacity: 1; white-space: pre;">6.25%</text></g></g><g class="titletext"><text data-notex="1" class="titletext" transform="translate(370.4444444444444,310)translate(0,-4.703125)" text-anchor="middle" x="0" y="0" style="font-family: Verdana; font-size: 18px; fill: rgb(42, 63, 95); fill-opacity: 1; white-space: pre;"><tspan class="line" dy="0em" x="0" y="0">Run#1 </tspan><tspan class="line" dy="1.3em" x="0" y="0"> [16]</tspan></text></g></g><g class="trace" stroke-linejoin="round" style="opacity: 1;"><g class="slice"><path class="surface" d="M1088.9796920393562,388.9341801460163a84,84 0 0 0 -28.729692039356184,-162.9341801460163l0,-126a210,210 0 0 1 71.82423009839046,407.33545036504074Z" style="pointer-events: none; fill: rgb(0, 154, 199); fill-opacity: 1; stroke-width: 0; stroke: rgb(68, 68, 68); stroke-opacity: 1;"/><g class="slicetext"><text data-notex="1" class="slicetext" transform="translate(1205.0167396927945,291.47371788296124)" text-anchor="middle" x="0" y="0" style="font-family: Verdana; font-size: 18px; fill: rgb(255, 255, 255); fill-opacity: 1; white-space: pre;">44.4%</text></g></g><g class="slice"><path class="surface" d="M1060.25,226a84,84 0 0 0 -82.72385125302549,69.41355307597784l-124.0857768795382,-21.879670386033233a210,210 0 0 1 206.8096281325637,-173.53388268994462Z" style="pointer-events: none; fill: rgb(0, 91, 130); fill-opacity: 1; stroke-width: 0; stroke: rgb(68, 68, 68); stroke-opacity: 1;"/><g class="slicetext"><text data-notex="1" class="slicetext" transform="translate(965.7602213760788,204.39146686151025)" text-anchor="middle" x="0" y="0" style="font-family: Verdana; font-size: 18px; fill: rgb(255, 255, 255); fill-opacity: 1; white-space: pre;">22.2%</text></g></g><g class="slice"><path class="surface" d="M977.5261487469745,295.41355307597786a84,84 0 0 0 28.729692039356156,78.9341801460163l-80.99123882050398,96.52159983299121a210,210 0 0 1 -71.82423009839039,-197.33545036504074Z" style="pointer-events: none; fill: rgb(0, 70, 127); fill-opacity: 1; stroke-width: 0; stroke: rgb(68, 68, 68); stroke-opacity: 1;"/><g class="slicetext"><text data-notex="1" class="slicetext" transform="translate(922.1151847444714,367.2769610688733)" text-anchor="middle" x="0" y="0" style="font-family: Verdana; font-size: 18px; fill: rgb(255, 255, 255); fill-opacity: 1; white-space: pre;">16.7%</text></g></g><g class="slice"><path class="surface" d="M1006.2558407863307,374.34773322199413a84,84 0 0 0 25.264467174313097,14.586446924022141l-43.094538059034335,118.40127021902443a210,210 0 0 1 -63.16116793578274,-36.46611731005535Z" style="pointer-events: none; fill: rgb(210, 73, 42); fill-opacity: 1; stroke-width: 0; stroke: rgb(68, 68, 68); stroke-opacity: 1;"/><g class="slicetext"><text data-notex="1" class="slicetext" transform="translate(987.4211903527649,450.14319856377335)rotate(-60)" text-anchor="middle" x="0" y="0" style="font-family: Verdana; font-size: 18px; fill: rgb(255, 255, 255); fill-opacity: 1; white-space: pre;">5.56%</text></g></g><g class="slice"><path class="surface" d="M1031.5203079606438,388.9341801460163a84,84 0 0 0 28.729692039356138,5.065819853983715l-1.2734103055147243e-13,126a210,210 0 0 1 -71.82423009839034,-12.664549634959286Z" style="pointer-events: none; fill: rgb(85, 165, 28); fill-opacity: 1; stroke-width: 0; stroke: rgb(68, 68, 68); stroke-opacity: 1;"/><g class="slicetext"><text data-notex="1" class="slicetext" transform="translate(1039.745101852771,466.6004494574973)rotate(-80)" text-anchor="middle" x="0" y="0" style="font-family: Verdana; font-size: 18px; fill: rgb(255, 255, 255); fill-opacity: 1; white-space: pre;">5.56%</text></g></g><g class="slice"><path class="surface" d="M1060.25,394a84,84 0 0 0 28.729692039356145,-5.065819853983658l43.094538059034086,118.40127021902451a210,210 0 0 1 -71.82423009839036,12.664549634959144Z" style="pointer-events: none; fill: rgb(0, 135, 124); fill-opacity: 1; stroke-width: 0; stroke: rgb(68, 68, 68); stroke-opacity: 1;"/><g class="slicetext"><text data-notex="1" class="slicetext" transform="translate(1080.7548981472285,466.6004494574973)rotate(80)" text-anchor="middle" x="0" y="0" style="font-family: Verdana; font-size: 18px; fill: rgb(255, 255, 255); fill-opacity: 1; white-space: pre;">5.56%</text></g></g><g class="titletext"><text data-notex="1" class="titletext" transform="translate(1060.25,310)translate(0,-4.703125)" text-anchor="middle" x="0" y="0" style="font-family: Verdana; font-size: 18px; fill: rgb(42, 63, 95); fill-opacity: 1; white-space: pre;"><tspan class="line" dy="0em" x="0" y="0">Run#2 </tspan><tspan class="line" dy="1.3em" x="0" y="0"> [18]</tspan></text></g></g></g><g class="iciclelayer"/><g class="treemaplayer"/><g class="sunburstlayer"/><g class="glimages"/><defs id="topdefs-85d111"><g class="clips"/><clipPath id="legend85d111"><rect width="375" height="274" x="0" y="0"/></clipPath></defs><g class="layer-above"><g class="imagelayer"/><g class="shapelayer"/></g><g class="infolayer"><g class="legend" pointer-events="all" transform="translate(1413.14,100)"><rect class="bg" shape-rendering="crispEdges" width="375" height="274" x="0" y="0" style="stroke: rgb(68, 68, 68); stroke-opacity: 1; fill: rgb(255, 255, 255); fill-opacity: 1; stroke-width: 0px;"/><g class="scrollbox" transform="" clip-path="url(#legend85d111)"><g class="groups"><g class="traces" transform="translate(0,18.200000000000003)" style="opacity: 1;"><text class="legendtext" text-anchor="start" x="40" y="7.0200000000000005" style="font-family: Verdana; font-size: 18px; fill: rgb(42, 63, 95); fill-opacity: 1; white-space: pre;">Biomedical and clinical sciences</text><g class="layers" style="opacity: 1;"><g class="legendfill"/><g class="legendlines"/><g class="legendsymbols"><g class="legendpoints"><path class="legendpie" d="M6,6H-6V-6H6Z" transform="translate(20,0)" style="fill: rgb(0, 70, 127); fill-opacity: 1; stroke-width: 0; stroke: rgb(68, 68, 68); stroke-opacity: 1;"/></g></g></g><rect class="legendtoggle" x="0" y="-13.200000000000001" width="369.3125" height="26.400000000000002" style="fill: rgb(0, 0, 0); fill-opacity: 0;"/></g><g class="traces" transform="translate(0,44.6)" style="opacity: 1;"><text class="legendtext" text-anchor="start" x="40" y="7.0200000000000005" style="font-family: Verdana; font-size: 18px; fill: rgb(42, 63, 95); fill-opacity: 1; white-space: pre;">Engineering</text><g class="layers" style="opacity: 1;"><g class="legendfill"/><g class="legendlines"/><g class="legendsymbols"><g class="legendpoints"><path class="legendpie" d="M6,6H-6V-6H6Z" transform="translate(20,0)" style="fill: rgb(0, 154, 199); fill-opacity: 1; stroke-width: 0; stroke: rgb(68, 68, 68); stroke-opacity: 1;"/></g></g></g><rect class="legendtoggle" x="0" y="-13.200000000000001" width="369.3125" height="26.400000000000002" style="fill: rgb(0, 0, 0); fill-opacity: 0;"/></g><g class="traces" transform="translate(0,71)" style="opacity: 1;"><text class="legendtext" text-anchor="start" x="40" y="7.0200000000000005" style="font-family: Verdana; font-size: 18px; fill: rgb(42, 63, 95); fill-opacity: 1; white-space: pre;">Built environment and design</text><g class="layers" style="opacity: 1;"><g class="legendfill"/><g class="legendlines"/><g class="legendsymbols"><g class="legendpoints"><path class="legendpie" d="M6,6H-6V-6H6Z" transform="translate(20,0)" style="fill: rgb(141, 144, 145); fill-opacity: 1; stroke-width: 0; stroke: rgb(68, 68, 68); stroke-opacity: 1;"/></g></g></g><rect class="legendtoggle" x="0" y="-13.200000000000001" width="369.3125" height="26.400000000000002" style="fill: rgb(0, 0, 0); fill-opacity: 0;"/></g><g class="traces" transform="translate(0,97.4)" style="opacity: 1;"><text class="legendtext" text-anchor="start" x="40" y="7.0200000000000005" style="font-family: Verdana; font-size: 18px; fill: rgb(42, 63, 95); fill-opacity: 1; white-space: pre;">Economics</text><g class="layers" style="opacity: 1;"><g class="legendfill"/><g class="legendlines"/><g class="legendsymbols"><g class="legendpoints"><path class="legendpie" d="M6,6H-6V-6H6Z" transform="translate(20,0)" style="fill: rgb(167, 25, 48); fill-opacity: 1; stroke-width: 0; stroke: rgb(68, 68, 68); stroke-opacity: 1;"/></g></g></g><rect class="legendtoggle" x="0" y="-13.200000000000001" width="369.3125" height="26.400000000000002" style="fill: rgb(0, 0, 0); fill-opacity: 0;"/></g><g class="traces" transform="translate(0,123.80000000000001)" style="opacity: 1;"><text class="legendtext" text-anchor="start" x="40" y="7.0200000000000005" style="font-family: Verdana; font-size: 18px; fill: rgb(42, 63, 95); fill-opacity: 1; white-space: pre;">Chemical sciences</text><g class="layers" style="opacity: 1;"><g class="legendfill"/><g class="legendlines"/><g class="legendsymbols"><g class="legendpoints"><path class="legendpie" d="M6,6H-6V-6H6Z" transform="translate(20,0)" style="fill: rgb(125, 0, 99); fill-opacity: 1; stroke-width: 0; stroke: rgb(68, 68, 68); stroke-opacity: 1;"/></g></g></g><rect class="legendtoggle" x="0" y="-13.200000000000001" width="369.3125" height="26.400000000000002" style="fill: rgb(0, 0, 0); fill-opacity: 0;"/></g><g class="traces" transform="translate(0,150.2)" style="opacity: 1;"><text class="legendtext" text-anchor="start" x="40" y="7.0200000000000005" style="font-family: Verdana; font-size: 18px; fill: rgb(42, 63, 95); fill-opacity: 1; white-space: pre;">Mathematical sciences</text><g class="layers" style="opacity: 1;"><g class="legendfill"/><g class="legendlines"/><g class="legendsymbols"><g class="legendpoints"><path class="legendpie" d="M6,6H-6V-6H6Z" transform="translate(20,0)" style="fill: rgb(210, 73, 42); fill-opacity: 1; stroke-width: 0; stroke: rgb(68, 68, 68); stroke-opacity: 1;"/></g></g></g><rect class="legendtoggle" x="0" y="-13.200000000000001" width="369.3125" height="26.400000000000002" style="fill: rgb(0, 0, 0); fill-opacity: 0;"/></g><g class="traces" transform="translate(0,176.6)" style="opacity: 1;"><text class="legendtext" text-anchor="start" x="40" y="7.0200000000000005" style="font-family: Verdana; font-size: 18px; fill: rgb(42, 63, 95); fill-opacity: 1; white-space: pre;">Biological sciences</text><g class="layers" style="opacity: 1;"><g class="legendfill"/><g class="legendlines"/><g class="legendsymbols"><g class="legendpoints"><path class="legendpie" d="M6,6H-6V-6H6Z" transform="translate(20,0)" style="fill: rgb(85, 165, 28); fill-opacity: 1; stroke-width: 0; stroke: rgb(68, 68, 68); stroke-opacity: 1;"/></g></g></g><rect class="legendtoggle" x="0" y="-13.200000000000001" width="369.3125" height="26.400000000000002" style="fill: rgb(0, 0, 0); fill-opacity: 0;"/></g><g class="traces" transform="translate(0,203)" style="opacity: 1;"><text class="legendtext" text-anchor="start" x="40" y="7.0200000000000005" style="font-family: Verdana; font-size: 18px; fill: rgb(42, 63, 95); fill-opacity: 1; white-space: pre;">Education</text><g class="layers" style="opacity: 1;"><g class="legendfill"/><g class="legendlines"/><g class="legendsymbols"><g class="legendpoints"><path class="legendpie" d="M6,6H-6V-6H6Z" transform="translate(20,0)" style="fill: rgb(79, 45, 127); fill-opacity: 1; stroke-width: 0; stroke: rgb(68, 68, 68); stroke-opacity: 1;"/></g></g></g><rect class="legendtoggle" x="0" y="-13.200000000000001" width="369.3125" height="26.400000000000002" style="fill: rgb(0, 0, 0); fill-opacity: 0;"/></g><g class="traces" transform="translate(0,229.4)" style="opacity: 1;"><text class="legendtext" text-anchor="start" x="40" y="7.0200000000000005" style="font-family: Verdana; font-size: 18px; fill: rgb(42, 63, 95); fill-opacity: 1; white-space: pre;">Health sciences</text><g class="layers" style="opacity: 1;"><g class="legendfill"/><g class="legendlines"/><g class="legendsymbols"><g class="legendpoints"><path class="legendpie" d="M6,6H-6V-6H6Z" transform="translate(20,0)" style="fill: rgb(0, 91, 130); fill-opacity: 1; stroke-width: 0; stroke: rgb(68, 68, 68); stroke-opacity: 1;"/></g></g></g><rect class="legendtoggle" x="0" y="-13.200000000000001" width="369.3125" height="26.400000000000002" style="fill: rgb(0, 0, 0); fill-opacity: 0;"/></g><g class="traces" transform="translate(0,255.8)" style="opacity: 1;"><text class="legendtext" text-anchor="start" x="40" y="7.0200000000000005" style="font-family: Verdana; font-size: 18px; fill: rgb(42, 63, 95); fill-opacity: 1; white-space: pre;">Information and computing sciences</text><g class="layers" style="opacity: 1;"><g class="legendfill"/><g class="legendlines"/><g class="legendsymbols"><g class="legendpoints"><path class="legendpie" d="M6,6H-6V-6H6Z" transform="translate(20,0)" style="fill: rgb(0, 135, 124); fill-opacity: 1; stroke-width: 0; stroke: rgb(68, 68, 68); stroke-opacity: 1;"/></g></g></g><rect class="legendtoggle" x="0" y="-13.200000000000001" width="369.3125" height="26.400000000000002" style="fill: rgb(0, 0, 0); fill-opacity: 0;"/></g></g></g><rect class="scrollbar" rx="20" ry="3" width="0" height="0" x="0" y="0" style="fill: rgb(128, 139, 164); fill-opacity: 1;"/></g><g class="g-gtitle"/></g></svg>