<svg class="main-svg" xmlns="http://www.w3.org/2000/svg" xmlns:xlink="http://www.w3.org/1999/xlink" width="700" height="500" style="" viewBox="0 0 700 500"><rect x="0" y="0" width="700" height="500" style="fill: rgb(255, 255, 255); fill-opacity: 1;"/><defs id="defs-63e819"><g class="clips"><clipPath id="clip63e819xyplot" class="plotclip"><rect width="491" height="320"/></clipPath><clipPath class="axesclip" id="clip63e819x"><rect x="80" y="0" width="491" height="500"/></clipPath><clipPath class="axesclip" id="clip63e819y"><rect x="0" y="100" width="700" height="320"/></clipPath><clipPath class="axesclip" id="clip63e819xy"><rect x="80" y="100" width="491" height="320"/></clipPath></g><g class="gradients"/><g class="patterns"/></defs><g class="bglayer"><rect class="bg" x="80" y="100" width="491" height="320" style="fill: rgb(229, 236, 246); fill-opacity: 1; stroke-width: 0;"/></g><g class="layer-below"><g class="imagelayer"/><g class="shapelayer"/></g><g class="cartesianlayer"><g class="subplot xy"><g class="layer-subplot"><g class="shapelayer"/><g class="imagelayer"/></g><g class="minor-gridlayer"><g class="x"/><g class="y"/></g><g class="gridlayer"><g class="x"><path class="xgrid crisp" transform="translate(109.55,0)" d="M0,100v320" style="stroke: rgb(255, 255, 255); stroke-opacity: 1; stroke-width: 1px;"/><path class="xgrid crisp" transform="translate(217.53,0)" d="M0,100v320" style="stroke: rgb(255, 255, 255); stroke-opacity: 1; stroke-width: 1px;"/><path class="xgrid crisp" transform="translate(325.5,0)" d="M0,100v320" style="stroke: rgb(255, 255, 255); stroke-opacity: 1; stroke-width: 1px;"/><path class="xgrid crisp" transform="translate(433.48,0)" d="M0,100v320" style="stroke: rgb(255, 255, 255); stroke-opacity: 1; stroke-width: 1px;"/><path class="xgrid crisp" transform="translate(541.45,0)" d="M0,100v320" style="stroke: rgb(255, 255, 255); stroke-opacity: 1; stroke-width: 1px;"/></g><g class="y"><path class="ygrid crisp" transform="translate(0,376.76)" d="M80,0h491" style="stroke: rgb(255, 255, 255); stroke-opacity: 1; stroke-width: 1px;"/><path class="ygrid crisp" transform="translate(0,333.51)" d="M80,0h491" style="stroke: rgb(255, 255, 255); stroke-opacity: 1; stroke-width: 1px;"/><path class="ygrid crisp" transform="translate(0,290.27)" d="M80,0h491" style="stroke: rgb(255, 255, 255); stroke-opacity: 1; stroke-width: 1px;"/><path class="ygrid crisp" transform="translate(0,247.03)" d="M80,0h491" style="stroke: rgb(255, 255, 255); stroke-opacity: 1; stroke-width: 1px;"/><path class="ygrid crisp" transform="translate(0,203.78)" d="M80,0h491" style="stroke: rgb(255, 255, 255); stroke-opacity: 1; stroke-width: 1px;"/><path class="ygrid crisp" transform="translate(0,160.54)" d="M80,0h491" style="stroke: rgb(255, 255, 255); stroke-opacity: 1; stroke-width: 1px;"/><path class="ygrid crisp" transform="translate(0,117.3)" d="M80,0h491" style="stroke: rgb(255, 255, 255); stroke-opacity: 1; stroke-width: 1px;"/></g></g><g class="zerolinelayer"><path class="yzl zl crisp" transform="translate(0,420)" d="M80,0h491" style="stroke: rgb(255, 255, 255); stroke-opacity: 1; stroke-width: 2px;"/></g><path class="xlines-below"/><path class="ylines-below"/><g class="overlines-below"/><g class="xaxislayer-below"/><g class="yaxislayer-below"/><g class="overaxes-below"/><g class="plot" transform="translate(80,100)" clip-path="url(#clip63e819xyplot)"><g class="scatterlayer mlayer"><g class="trace scatter traceb0c947" style="stroke-miterlimit: 2; opacity: 1;"><g class="fills"/><g class="errorbars"/><g class="lines"><path class="js-line" d="M29.55,51.89L137.53,77.84L245.5,34.59L353.48,77.84L461.45,112.43" style="vector-effect: none; fill: none; stroke: rgb(0, 70, 127); stroke-opacity: 1; stroke-width: 2px; opacity: 1;"/></g><g class="points"><path class="point" transform="translate(29.55,51.89)" d="M4,0A4,4 0 1,1 0,-4A4,4 0 0,1 4,0Z" style="opacity: 1; stroke-width: 0px; fill: rgb(0, 70, 127); fill-opacity: 1;"/><path class="point" transform="translate(137.53,77.84)" d="M4,0A4,4 0 1,1 0,-4A4,4 0 0,1 4,0Z" style="opacity: 1; stroke-width: 0px; fill: rgb(0, 70, 127); fill-opacity: 1;"/><path class="point" transform="translate(245.5,34.59)" d="M4,0A4,4 0 1,1 0,-4A4,4 0 0,1 4,0Z" style="opacity: 1; stroke-width: 0px; fill: rgb(0, 70, 127); fill-opacity: 1;"/><path class="point" transform="translate(353.48,77.84)" d="M4,0A4,4 0 1,1 0,-4A4,4 0 0,1 4,0Z" style="opacity: 1; stroke-width: 0px; fill: rgb(0, 70, 127); fill-opacity: 1;"/><path class="point" transform="translate(461.45,112.43)" d="M4,0A4,4 0 1,1 0,-4A4,4 0 0,1 4,0Z" style="opacity: 1; stroke-width: 0px; fill: rgb(0, 70, 127); fill-opacity: 1;"/></g><g class="text"/></g><g class="trace scatter traced01da7" style="stroke-miterlimit: 2; opacity: 1;"><g class="fills"/><g class="errorbars"/><g class="lines"><path class="js-line" d="M29.55,17.3L137.53,86.49L245.5,51.89L353.48,112.43" style="vector-effect: none; fill: none; stroke: rgb(0, 154, 199); stroke-opacity: 1; stroke-width: 2px; opacity: 1;"/></g><g class="points"><path class="point" transform="translate(29.55,17.3)" d="M4,0A4,4 0 1,1 0,-4A4,4 0 0,1 4,0Z" style="opacity: 1; stroke-width: 0px; fill: rgb(0, 154, 199); fill-opacity: 1;"/><path class="point" transform="translate(137.53,86.49)" d="M4,0A4,4 0 1,1 0,-4A4,4 0 0,1 4,0Z" style="opacity: 1; stroke-width: 0px; fill: rgb(0, 154, 199); fill-opacity: 1;"/><path class="point" transform="translate(245.5,51.89)" d="M4,0A4,4 0 1,1 0,-4A4,4 0 0,1 4,0Z" style="opacity: 1; stroke-width: 0px; fill: rgb(0, 154, 199); fill-opacity: 1;"/><path class="point" transform="translate(353.48,112.43)" d="M4,0A4,4 0 1,1 0,-4A4,4 0 0,1 4,0Z" style="opacity: 1; stroke-width: 0px; fill: rgb(0, 154, 199); fill-opacity: 1;"/></g><g class="text"/></g><g class="trace scatter trace20f5c3" style="stroke-miterlimit: 2; opacity: 1;"><g class="fills"/><g class="errorbars"/><g class="lines"/><g class="points"/><g class="text"><g class="textpoint" transform="translate(0,-4.5)"><text x="29.55" y="51.89" text-anchor="middle" style="font-family: Verdana; font-size: 18px; fill: rgb(42, 63, 95); fill-opacity: 1; white-space: pre;">31</text></g><g class="textpoint" transform="translate(0,-4.5)"><text x="137.53" y="77.84" text-anchor="middle" style="font-family: Verdana; font-size: 18px; fill: rgb(42, 63, 95); fill-opacity: 1; white-space: pre;">28</text></g><g class="textpoint" transform="translate(0,-4.5)"><text x="245.5" y="34.59" text-anchor="middle" style="font-family: Verdana; font-size: 18px; fill: rgb(42, 63, 95); fill-opacity: 1; white-space: pre;">33</text></g><g class="textpoint" transform="translate(0,-4.5)"><text x="353.48" y="77.84" text-anchor="middle" style="font-family: Verdana; font-size: 18px; fill: rgb(42, 63, 95); fill-opacity: 1; white-space: pre;">28</text></g><g class="textpoint" transform="translate(0,-4.5)"><text x="461.45" y="112.43" text-anchor="middle" style="font-family: Verdana; font-size: 18px; fill: rgb(42, 63, 95); fill-opacity: 1; white-space: pre;">24</text></g></g></g><g class="trace scatter tracef77905" style="stroke-miterlimit: 2; opacity: 1;"><g class="fills"/><g class="errorbars"/><g class="lines"/><g class="points"/><g class="text"><g class="textpoint" transform="translate(0,13.5)"><text x="29.55" y="17.3" text-anchor="middle" style="font-family: Verdana; font-size: 18px; fill: rgb(42, 63, 95); fill-opacity: 1; white-space: pre;">35</text></g><g class="textpoint" transform="translate(0,13.5)"><text x="137.53" y="86.49" text-anchor="middle" style="font-family: Verdana; font-size: 18px; fill: rgb(42, 63, 95); fill-opacity: 1; white-space: pre;">27</text></g><g class="textpoint" transform="translate(0,13.5)"><text x="245.5" y="51.89" text-anchor="middle" style="font-family: Verdana; font-size: 18px; fill: rgb(42, 63, 95); fill-opacity: 1; white-space: pre;">31</text></g><g class="textpoint" transform="translate(0,13.5)"><text x="353.48" y="112.43" text-anchor="middle" style="font-family: Verdana; font-size: 18px; fill: rgb(42, 63, 95); fill-opacity: 1; white-space: pre;">24</text></g></g></g></g></g><g class="overplot"/><path class="xlines-above crisp" d="M0,0" style="fill: none;"/><path class="ylines-above crisp" d="M0,0" style="fill: none;"/><g class="overlines-above"/><g class="xaxislayer-above"><g class="xtick"><text text-anchor="middle" x="0" y="439" transform="translate(109.55,0)" style="font-family: Verdana; font-size: 18px; fill: rgb(42, 63, 95); fill-opacity: 1; white-space: pre; opacity: 1;">1</text></g><g class="xtick"><text text-anchor="middle" x="0" y="439" style="font-family: Verdana; font-size: 18px; fill: rgb(42, 63, 95); fill-opacity: 1; white-space: pre; opacity: 1;" transform="translate(217.53,0)">2</text></g><g class="xtick"><text text-anchor="middle" x="0" y="439" style="font-family: Verdana; font-size: 18px; fill: rgb(42, 63, 95); fill-opacity: 1; white-space: pre; opacity: 1;" transform="translate(325.5,0)">3</text></g><g class="xtick"><text text-anchor="middle" x="0" y="439" style="font-family: Verdana; font-size: 18px; fill: rgb(42, 63, 95); fill-opacity: 1; white-space: pre; opacity: 1;" transform="translate(433.48,0)">4</text></g><g class="xtick"><text text-anchor="middle" x="0" y="439" style="font-family: Verdana; font-size: 18px; fill: rgb(42, 63, 95); fill-opacity: 1; white-space: pre; opacity: 1;" transform="translate(541.45,0)">5</text></g></g><g class="yaxislayer-above"><g class="ytick"><text text-anchor="end" x="79" y="6.3" transform="translate(0,420)" style="font-family: Verdana; font-size: 18px; fill: rgb(42, 63, 95); fill-opacity: 1; white-space: pre; opacity: 1;">0</text></g><g class="ytick"><text text-anchor="end" x="79" y="6.3" style="font-family: Verdana; font-size: 18px; fill: rgb(42, 63, 95); fill-opacity: 1; white-space: pre; opacity: 1;" transform="translate(0,376.76)">5</text></g><g class="ytick"><text text-anchor="end" x="79" y="6.3" style="font-family: Verdana; font-size: 18px; fill: rgb(42, 63, 95); fill-opacity: 1; white-space: pre; opacity: 1;" transform="translate(0,333.51)">10</text></g><g class="ytick"><text text-anchor="end" x="79" y="6.3" style="font-family: Verdana; font-size: 18px; fill: rgb(42, 63, 95); fill-opacity: 1; white-space: pre; opacity: 1;" transform="translate(0,290.27)">15</text></g><g class="ytick"><text text-anchor="end" x="79" y="6.3" style="font-family: Verdana; font-size: 18px; fill: rgb(42, 63, 95); fill-opacity: 1; white-space: pre; opacity: 1;" transform="translate(0,247.03)">20</text></g><g class="ytick"><text text-anchor="end" x="79" y="6.3" style="font-family: Verdana; font-size: 18px; fill: rgb(42, 63, 95); fill-opacity: 1; white-space: pre; opacity: 1;" transform="translate(0,203.78)">25</text></g><g class="ytick"><text text-anchor="end" x="79" y="6.3" style="font-family: Verdana; font-size: 18px; fill: rgb(42, 63, 95); fill-opacity: 1; white-space: pre; opacity: 1;" transform="translate(0,160.54)">30</text></g><g class="ytick"><text text-anchor="end" x="79" y="6.3" style="font-family: Verdana; font-size: 18px; fill: rgb(42, 63, 95); fill-opacity: 1; white-space: pre; opacity: 1;" transform="translate(0,117.3)">35</text></g></g><g class="overaxes-above"/></g></g><g class="polarlayer"/><g class="smithlayer"/><g class="ternarylayer"/><g class="geolayer"/><g class="funnelarealayer"/><g class="pielayer"/><g class="iciclelayer"/><g class="treemaplayer"/><g class="sunburstlayer"/><g class="glimages"/><defs id="topdefs-63e819"><g class="clips"/><clipPath id="legend63e819"><rect width="107" height="63" x="0" y="0"/></clipPath></defs><g class="layer-above"><g class="imagelayer"/><g class="shapelayer"/></g><g class="infolayer"><g class="legend" pointer-events="all" transform="translate(580.8199999999999,100)"><rect class="bg" shape-rendering="crispEdges" style="stroke: rgb(68, 68, 68); stroke-opacity: 1; fill: rgb(255, 255, 255); fill-opacity: 1; stroke-width: 0px;" width="107" height="63" x="0" y="0"/><g class="scrollbox" transform="" clip-path="url(#legend63e819)"><g class="groups"><g class="traces" transform="translate(0,18.200000000000003)" style="opacity: 1;"><text class="legendtext" text-anchor="start" x="40" y="7.0200000000000005" style="font-family: Verdana; font-size: 18px; fill: rgb(42, 63, 95); fill-opacity: 1; white-space: pre;">Run#1</text><g class="layers" style="opacity: 1;"><g class="legendfill"/><g class="legendlines"><path class="js-line" d="M5,0h30" style="fill: none; stroke: rgb(0, 70, 127); stroke-opacity: 1; stroke-width: 2px;"/></g><g class="legendsymbols"><g class="legendpoints"><path class="scatterpts" transform="translate(20,0)" d="M4,0A4,4 0 1,1 0,-4A4,4 0 0,1 4,0Z" style="opacity: 1; stroke-width: 0px; fill: rgb(0, 70, 127); fill-opacity: 1;"/></g></g></g><rect class="legendtoggle" x="0" y="-13.200000000000001" width="101.484375" height="26.400000000000002" style="fill: rgb(0, 0, 0); fill-opacity: 0;"/></g><g class="traces" transform="translate(0,44.6)" style="opacity: 1;"><text class="legendtext" text-anchor="start" x="40" y="7.0200000000000005" style="font-family: Verdana; font-size: 18px; fill: rgb(42, 63, 95); fill-opacity: 1; white-space: pre;">Run#2</text><g class="layers" style="opacity: 1;"><g class="legendfill"/><g class="legendlines"><path class="js-line" d="M5,0h30" style="fill: none; stroke: rgb(0, 154, 199); stroke-opacity: 1; stroke-width: 2px;"/></g><g class="legendsymbols"><g class="legendpoints"><path class="scatterpts" transform="translate(20,0)" d="M4,0A4,4 0 1,1 0,-4A4,4 0 0,1 4,0Z" style="opacity: 1; stroke-width: 0px; fill: rgb(0, 154, 199); fill-opacity: 1;"/></g></g></g><rect class="legendtoggle" x="0" y="-13.200000000000001" width="101.484375" height="26.400000000000002" style="fill: rgb(0, 0, 0); fill-opacity: 0;"/></g></g></g><rect class="scrollbar" rx="20" ry="3" width="0" height="0" style="fill: rgb(128, 139, 164); fill-opacity: 1;" x="0" y="0"/></g><g class="g-gtitle"><text class="gtitle" x="35" y="50" text-anchor="start" dy="0em" style="font-family: Verdana; font-size: 25px; fill: rgb(42, 63, 95); opacity: 1; font-weight: normal; white-space: pre;">Attendees per Zoom session</text></g><g class="g-xtitle"><text class="xtitle" x="325.5" y="472.9" text-anchor="middle" style="font-family: Verdana; font-size: 22px; fill: rgb(42, 63, 95); opacity: 1; font-weight: normal; white-space: pre;">Day</text></g><g class="g-ytitle"/><g class="annotation" data-index="0" style="opacity: 1;"><g class="annotation-text-g" transform="rotate(0,325.5,96)"><g class="cursor-pointer" transform="translate(126,84)"><rect class="bg" x="0.5" y="0.5" width="398" height="23" style="stroke-width: 1px; stroke: rgb(0, 0, 0); stroke-opacity: 0; fill: rgb(0, 0, 0); fill-opacity: 0;"/><text class="annotation-text" text-anchor="middle" x="199.4375" y="18" style="font-family: Verdana; font-size: 16px; fill: rgb(42, 63, 95); fill-opacity: 1; white-space: pre;">deduplicated, not including instructors or helpers</text></g></g></g></g></svg>