<svg height="512" width="376" xmlns="http://www.w3.org/2000/svg"><path d="m363.1749878 34.3386345c.8400269 19.7925911-14.3702087 36.5211449-33.9805298 37.3691826-19.6002808.8480377-36.1755371-14.5075035-37.015564-34.3000946s14.3702393-36.5261939 33.9755249-37.3742315 36.180542 14.5125486 37.0205689 34.3051435m-169.6393433 350.1620674c-78.2163391 0-146.3281555-28.4102173-181.7874756-70.3781433 26.833786 75.240448 98.0906677 129.0350952 181.7874756 129.0350952s154.9537048-53.7946472 181.7874756-129.0350952c-35.4593201 41.967926-103.5711365 70.3781433-181.7874756 70.3781433m0-273.1663055c78.2163391 0 146.3281555 28.4065704 181.7874756 70.3781586-26.8337708-75.2404785-98.0906677-129.0387421-181.7874756-129.0387421s-154.9536895 53.7982635-181.7874756 129.038742c35.4593125-41.9715881 103.5711365-70.3781585 181.7874756-70.3781585m-92.1439361 356.2264251c.996994 23.5126343-17.0774078 43.38797-40.3688049 44.3994751-23.2914047 1.0064392-42.9797745-17.239624-43.9767761-40.7522583-1.0019455-23.5126343 17.072464-43.3930054 40.3638611-44.3994751 23.291397-1.0064392 42.9847106 17.2396241 43.9817199 40.7522583m-74.4737396-372.5431595c-14.2418442.6150666-26.2842559-10.5412673-26.8935546-24.9229965-.6142578-14.3767166 10.4374084-26.5331802 24.6842041-27.1482506 14.2418442-.6150742 26.2842484 10.5412636 26.8935547 24.9179802.6142577 14.3817292-10.4423677 26.5381852-24.6842042 27.1532669z"/></svg>